M48
; DRILL file KiCad 10.0.4 date 2026-07-18T00:46:51
; FORMAT={-:-/ absolute / metric / decimal}
; #@! TF.CreationDate,2026-07-18T00:46:51-04:00
; #@! TF.GenerationSoftware,Kicad,Pcbnew,10.0.4
; #@! TF.FileFunction,Plated,1,4,PTH
FMAT,2
METRIC
; #@! TA.AperFunction,Plated,PTH,ViaDrill
T1C0.300
%
G90
G05
T1
X155.6Y-106.25
X156.5Y-81.25
X156.5Y-105.0
X156.5Y-110.55
X156.55Y-96.95
X156.75Y-80.75
X157.5Y-110.6
X158.0Y-98.0
X158.0Y-99.475
X158.5Y-110.6
X158.775Y-98.653
X159.25Y-105.0
X159.728Y-98.302
X159.742Y-100.355
X160.25Y-80.75
X161.25Y-81.5
X161.275Y-98.308
X161.299Y-100.355
X161.5Y-110.5
X162.0Y-88.5
X162.0Y-93.5
X162.0Y-107.35
X162.5Y-110.5
X163.5Y-97.675
X163.5Y-110.5
X163.852Y-90.5
X164.0Y-93.5
X164.0Y-99.5
X164.145Y-97.0
X164.5Y-88.5
X164.75Y-85.75
X165.05Y-83.45
X165.5Y-90.5
X166.0Y-100.5
X166.0Y-102.0
X166.55Y-82.8
X167.0Y-101.25
X167.65Y-106.4
X168.05Y-83.35
X168.426Y-86.594
X168.525Y-106.4
X168.75Y-110.4
X169.375Y-106.4
X169.55Y-82.8
X169.9Y-104.75
X170.25Y-106.4
X170.3Y-83.25
X170.725Y-104.75
X170.8Y-107.35
X171.55Y-82.9
X171.575Y-104.75
X171.9Y-109.4
X172.057Y-108.616
X172.4Y-104.8
X174.35Y-110.5
M30
