%TF.GenerationSoftware,KiCad,Pcbnew,10.0.4*%
%TF.CreationDate,2026-07-18T00:46:46-04:00*%
%TF.ProjectId,ROV_PCIe_Adapter,524f565f-5043-4496-955f-416461707465,rev?*%
%TF.SameCoordinates,Original*%
%TF.FileFunction,Copper,L3,Inr*%
%TF.FilePolarity,Positive*%
%FSLAX46Y46*%
G04 Gerber Fmt 4.6, Leading zero omitted, Abs format (unit mm)*
G04 Created by KiCad (PCBNEW 10.0.4) date 2026-07-18 00:46:46*
%MOMM*%
%LPD*%
G01*
G04 APERTURE LIST*
%TA.AperFunction,ViaPad*%
%ADD10C,0.450000*%
%TD*%
%TA.AperFunction,ViaPad*%
%ADD11C,0.600000*%
%TD*%
G04 APERTURE END LIST*
D10*
%TO.N,GND*%
X156750000Y-80750000D03*
X156500000Y-81250000D03*
D11*
%TO.N,+5V*%
X156550000Y-96950000D03*
D10*
X164145000Y-97000000D03*
%TO.N,/PCIE_PWR_EN*%
X163851772Y-90500214D03*
D11*
X170300000Y-83250000D03*
%TO.N,GND*%
X171900000Y-109400000D03*
D10*
X158775230Y-98652914D03*
D11*
X161500000Y-110500000D03*
D10*
X162000000Y-93500000D03*
D11*
X167650000Y-106400000D03*
D10*
X159728126Y-98302015D03*
D11*
X170250000Y-106400000D03*
X174350000Y-110500000D03*
X172400000Y-104800000D03*
D10*
X159250000Y-105000000D03*
D11*
X169550000Y-82800000D03*
D10*
X158000000Y-98000000D03*
X158000000Y-99475000D03*
X160250000Y-80750000D03*
X162000000Y-88500000D03*
X156500000Y-105000000D03*
X165500000Y-90500000D03*
D11*
X165050000Y-83450000D03*
D10*
X164500000Y-88500000D03*
X163500000Y-97675000D03*
X164000000Y-99500000D03*
X155600000Y-106250000D03*
X167000000Y-101250000D03*
X164000000Y-93500000D03*
X161274720Y-98307681D03*
X161299441Y-100355386D03*
X161250000Y-81500000D03*
D11*
X158500000Y-110600000D03*
D10*
X166000000Y-102000000D03*
D11*
X168750000Y-110400000D03*
D10*
X168426499Y-86593960D03*
X159742031Y-100355385D03*
X164750000Y-85750000D03*
X166000000Y-100500000D03*
D11*
X169900000Y-104750000D03*
X168050000Y-83350000D03*
X166550000Y-82800000D03*
%TO.N,+12V*%
X156500000Y-110550000D03*
X157500000Y-110600000D03*
%TO.N,/HOST_PCIE_CLK_P*%
X168525000Y-106400000D03*
%TO.N,/HOST_PCIE_CLK_N*%
X169375000Y-106400000D03*
%TO.N,/HOST_PCIE_RX_P*%
X170725000Y-104750000D03*
%TO.N,/HOST_PCIE_RX_N*%
X171575000Y-104750000D03*
%TO.N,/HOST_PCIE_PERSTN*%
X171550000Y-82900000D03*
%TO.N,Net-(J1-~{PRSNT1})*%
X170800000Y-107350000D03*
X172056893Y-108615533D03*
X162000000Y-107350000D03*
D10*
%TO.N,+3.3V*%
X163500000Y-110500000D03*
X162500000Y-110500000D03*
%TD*%
%TA.AperFunction,Conductor*%
%TO.N,GND*%
G36*
X174592539Y-80520185D02*
G01*
X174638294Y-80572989D01*
X174649500Y-80624500D01*
X174649500Y-115941324D01*
X174640855Y-115970764D01*
X174634332Y-116000751D01*
X174630577Y-116005766D01*
X174629815Y-116008363D01*
X174613181Y-116029005D01*
X174479005Y-116163181D01*
X174417682Y-116196666D01*
X174391324Y-116199500D01*
X168708676Y-116199500D01*
X168641637Y-116179815D01*
X168620995Y-116163181D01*
X168486819Y-116029005D01*
X168453334Y-115967682D01*
X168450500Y-115941324D01*
X168450500Y-109135837D01*
X168414784Y-108910339D01*
X168344229Y-108693196D01*
X168292272Y-108591226D01*
X168267729Y-108543058D01*
X171506393Y-108543058D01*
X171506393Y-108688008D01*
X171543909Y-108828018D01*
X171543910Y-108828021D01*
X171616381Y-108953544D01*
X171616383Y-108953546D01*
X171616384Y-108953548D01*
X171718878Y-109056042D01*
X171718879Y-109056043D01*
X171718881Y-109056044D01*
X171844404Y-109128515D01*
X171844405Y-109128515D01*
X171844408Y-109128517D01*
X171984418Y-109166033D01*
X171984421Y-109166033D01*
X172129365Y-109166033D01*
X172129368Y-109166033D01*
X172269378Y-109128517D01*
X172394908Y-109056042D01*
X172497402Y-108953548D01*
X172569877Y-108828018D01*
X172607393Y-108688008D01*
X172607393Y-108543058D01*
X172569877Y-108403048D01*
X172497402Y-108277518D01*
X172394908Y-108175024D01*
X172394906Y-108175023D01*
X172394904Y-108175021D01*
X172269381Y-108102550D01*
X172269382Y-108102550D01*
X172257899Y-108099473D01*
X172129368Y-108065033D01*
X171984418Y-108065033D01*
X171855886Y-108099473D01*
X171844404Y-108102550D01*
X171718881Y-108175021D01*
X171718875Y-108175026D01*
X171616386Y-108277515D01*
X171616381Y-108277521D01*
X171543910Y-108403044D01*
X171543909Y-108403048D01*
X171506393Y-108543058D01*
X168267729Y-108543058D01*
X168240579Y-108489772D01*
X168106379Y-108305063D01*
X167944937Y-108143621D01*
X167760228Y-108009421D01*
X167556803Y-107905770D01*
X167339660Y-107835215D01*
X167114162Y-107799500D01*
X167114157Y-107799500D01*
X166885843Y-107799500D01*
X166885838Y-107799500D01*
X166660339Y-107835215D01*
X166443196Y-107905770D01*
X166239771Y-108009421D01*
X166055061Y-108143622D01*
X165893622Y-108305061D01*
X165759421Y-108489771D01*
X165655770Y-108693196D01*
X165585215Y-108910339D01*
X165549500Y-109135837D01*
X165549500Y-115941324D01*
X165540855Y-115970764D01*
X165534332Y-116000751D01*
X165530577Y-116005766D01*
X165529815Y-116008363D01*
X165513181Y-116029005D01*
X165379005Y-116163181D01*
X165317682Y-116196666D01*
X165291324Y-116199500D01*
X155608676Y-116199500D01*
X155541637Y-116179815D01*
X155520995Y-116163181D01*
X155386819Y-116029005D01*
X155353334Y-115967682D01*
X155350500Y-115941324D01*
X155350500Y-110477525D01*
X155949500Y-110477525D01*
X155949500Y-110622475D01*
X155987016Y-110762485D01*
X155987017Y-110762488D01*
X156059488Y-110888011D01*
X156059490Y-110888013D01*
X156059491Y-110888015D01*
X156161985Y-110990509D01*
X156161986Y-110990510D01*
X156161988Y-110990511D01*
X156287511Y-111062982D01*
X156287512Y-111062982D01*
X156287515Y-111062984D01*
X156427525Y-111100500D01*
X156427528Y-111100500D01*
X156572472Y-111100500D01*
X156572475Y-111100500D01*
X156712485Y-111062984D01*
X156838015Y-110990509D01*
X156887319Y-110941205D01*
X156948642Y-110907720D01*
X157018334Y-110912704D01*
X157062681Y-110941205D01*
X157161985Y-111040509D01*
X157161986Y-111040510D01*
X157161988Y-111040511D01*
X157287511Y-111112982D01*
X157287512Y-111112982D01*
X157287515Y-111112984D01*
X157427525Y-111150500D01*
X157427528Y-111150500D01*
X157572472Y-111150500D01*
X157572475Y-111150500D01*
X157712485Y-111112984D01*
X157838015Y-111040509D01*
X157940509Y-110938015D01*
X158012984Y-110812485D01*
X158050500Y-110672475D01*
X158050500Y-110527525D01*
X158026351Y-110437399D01*
X162024500Y-110437399D01*
X162024500Y-110562601D01*
X162056905Y-110683536D01*
X162119505Y-110791964D01*
X162208036Y-110880495D01*
X162316464Y-110943095D01*
X162437399Y-110975500D01*
X162437401Y-110975500D01*
X162562599Y-110975500D01*
X162562601Y-110975500D01*
X162683536Y-110943095D01*
X162791964Y-110880495D01*
X162880495Y-110791964D01*
X162892612Y-110770975D01*
X162943179Y-110722760D01*
X163011786Y-110709536D01*
X163076651Y-110735504D01*
X163107388Y-110770976D01*
X163119503Y-110791962D01*
X163119505Y-110791964D01*
X163208036Y-110880495D01*
X163316464Y-110943095D01*
X163437399Y-110975500D01*
X163437401Y-110975500D01*
X163562599Y-110975500D01*
X163562601Y-110975500D01*
X163683536Y-110943095D01*
X163791964Y-110880495D01*
X163880495Y-110791964D01*
X163943095Y-110683536D01*
X163975500Y-110562601D01*
X163975500Y-110437399D01*
X163943095Y-110316464D01*
X163880495Y-110208036D01*
X163791964Y-110119505D01*
X163683536Y-110056905D01*
X163683537Y-110056905D01*
X163643224Y-110046103D01*
X163562601Y-110024500D01*
X163437399Y-110024500D01*
X163356775Y-110046103D01*
X163316463Y-110056905D01*
X163208037Y-110119504D01*
X163208034Y-110119506D01*
X163119504Y-110208036D01*
X163107387Y-110229025D01*
X163056820Y-110277240D01*
X162988212Y-110290462D01*
X162923348Y-110264494D01*
X162892613Y-110229025D01*
X162880495Y-110208036D01*
X162791965Y-110119506D01*
X162791964Y-110119505D01*
X162683536Y-110056905D01*
X162683537Y-110056905D01*
X162643224Y-110046103D01*
X162562601Y-110024500D01*
X162437399Y-110024500D01*
X162356775Y-110046103D01*
X162316463Y-110056905D01*
X162208037Y-110119504D01*
X162208034Y-110119506D01*
X162119506Y-110208034D01*
X162119504Y-110208037D01*
X162056905Y-110316463D01*
X162056905Y-110316464D01*
X162024500Y-110437399D01*
X158026351Y-110437399D01*
X158012984Y-110387515D01*
X157984116Y-110337515D01*
X157940511Y-110261988D01*
X157940506Y-110261982D01*
X157838017Y-110159493D01*
X157838011Y-110159488D01*
X157712488Y-110087017D01*
X157712489Y-110087017D01*
X157701006Y-110083940D01*
X157572475Y-110049500D01*
X157427525Y-110049500D01*
X157298993Y-110083940D01*
X157287511Y-110087017D01*
X157161988Y-110159488D01*
X157161982Y-110159493D01*
X157112681Y-110208795D01*
X157051358Y-110242280D01*
X156981666Y-110237296D01*
X156937319Y-110208795D01*
X156838017Y-110109493D01*
X156838011Y-110109488D01*
X156712488Y-110037017D01*
X156712489Y-110037017D01*
X156701006Y-110033940D01*
X156572475Y-109999500D01*
X156427525Y-109999500D01*
X156298993Y-110033940D01*
X156287511Y-110037017D01*
X156161988Y-110109488D01*
X156161982Y-110109493D01*
X156059493Y-110211982D01*
X156059488Y-110211988D01*
X155987017Y-110337511D01*
X155987016Y-110337515D01*
X155949500Y-110477525D01*
X155350500Y-110477525D01*
X155350500Y-107277525D01*
X161449500Y-107277525D01*
X161449500Y-107422475D01*
X161487016Y-107562485D01*
X161487017Y-107562488D01*
X161559488Y-107688011D01*
X161559490Y-107688013D01*
X161559491Y-107688015D01*
X161661985Y-107790509D01*
X161661986Y-107790510D01*
X161661988Y-107790511D01*
X161787511Y-107862982D01*
X161787512Y-107862982D01*
X161787515Y-107862984D01*
X161927525Y-107900500D01*
X161927528Y-107900500D01*
X162072472Y-107900500D01*
X162072475Y-107900500D01*
X162212485Y-107862984D01*
X162338015Y-107790509D01*
X162440509Y-107688015D01*
X162512984Y-107562485D01*
X162550500Y-107422475D01*
X162550500Y-107277525D01*
X170249500Y-107277525D01*
X170249500Y-107422475D01*
X170287016Y-107562485D01*
X170287017Y-107562488D01*
X170359488Y-107688011D01*
X170359490Y-107688013D01*
X170359491Y-107688015D01*
X170461985Y-107790509D01*
X170461986Y-107790510D01*
X170461988Y-107790511D01*
X170587511Y-107862982D01*
X170587512Y-107862982D01*
X170587515Y-107862984D01*
X170727525Y-107900500D01*
X170727528Y-107900500D01*
X170872472Y-107900500D01*
X170872475Y-107900500D01*
X171012485Y-107862984D01*
X171138015Y-107790509D01*
X171240509Y-107688015D01*
X171312984Y-107562485D01*
X171350500Y-107422475D01*
X171350500Y-107277525D01*
X171312984Y-107137515D01*
X171240509Y-107011985D01*
X171138015Y-106909491D01*
X171138013Y-106909490D01*
X171138011Y-106909488D01*
X171012488Y-106837017D01*
X171012489Y-106837017D01*
X171001006Y-106833940D01*
X170872475Y-106799500D01*
X170727525Y-106799500D01*
X170598993Y-106833940D01*
X170587511Y-106837017D01*
X170461988Y-106909488D01*
X170461982Y-106909493D01*
X170359493Y-107011982D01*
X170359488Y-107011988D01*
X170287017Y-107137511D01*
X170287016Y-107137515D01*
X170249500Y-107277525D01*
X162550500Y-107277525D01*
X162512984Y-107137515D01*
X162440509Y-107011985D01*
X162338015Y-106909491D01*
X162338013Y-106909490D01*
X162338011Y-106909488D01*
X162212488Y-106837017D01*
X162212489Y-106837017D01*
X162201006Y-106833940D01*
X162072475Y-106799500D01*
X161927525Y-106799500D01*
X161798993Y-106833940D01*
X161787511Y-106837017D01*
X161661988Y-106909488D01*
X161661982Y-106909493D01*
X161559493Y-107011982D01*
X161559488Y-107011988D01*
X161487017Y-107137511D01*
X161487016Y-107137515D01*
X161449500Y-107277525D01*
X155350500Y-107277525D01*
X155350500Y-106327525D01*
X167974500Y-106327525D01*
X167974500Y-106472475D01*
X168012016Y-106612485D01*
X168012017Y-106612488D01*
X168084488Y-106738011D01*
X168084490Y-106738013D01*
X168084491Y-106738015D01*
X168186985Y-106840509D01*
X168186986Y-106840510D01*
X168186988Y-106840511D01*
X168312511Y-106912982D01*
X168312512Y-106912982D01*
X168312515Y-106912984D01*
X168452525Y-106950500D01*
X168452528Y-106950500D01*
X168597472Y-106950500D01*
X168597475Y-106950500D01*
X168737485Y-106912984D01*
X168863015Y-106840509D01*
X168863019Y-106840504D01*
X168869461Y-106835562D01*
X168870403Y-106836790D01*
X168923642Y-106807720D01*
X168993334Y-106812704D01*
X169029997Y-106836267D01*
X169030539Y-106835562D01*
X169036988Y-106840511D01*
X169162511Y-106912982D01*
X169162512Y-106912982D01*
X169162515Y-106912984D01*
X169302525Y-106950500D01*
X169302528Y-106950500D01*
X169447472Y-106950500D01*
X169447475Y-106950500D01*
X169587485Y-106912984D01*
X169713015Y-106840509D01*
X169815509Y-106738015D01*
X169887984Y-106612485D01*
X169925500Y-106472475D01*
X169925500Y-106327525D01*
X169887984Y-106187515D01*
X169815509Y-106061985D01*
X169713015Y-105959491D01*
X169713013Y-105959490D01*
X169713011Y-105959488D01*
X169587488Y-105887017D01*
X169587489Y-105887017D01*
X169576006Y-105883940D01*
X169447475Y-105849500D01*
X169302525Y-105849500D01*
X169173993Y-105883940D01*
X169162511Y-105887017D01*
X169036988Y-105959488D01*
X169030539Y-105964438D01*
X169029596Y-105963209D01*
X168976358Y-105992280D01*
X168906666Y-105987296D01*
X168870002Y-105963732D01*
X168869461Y-105964438D01*
X168863011Y-105959488D01*
X168737488Y-105887017D01*
X168737489Y-105887017D01*
X168726006Y-105883940D01*
X168597475Y-105849500D01*
X168452525Y-105849500D01*
X168323993Y-105883940D01*
X168312511Y-105887017D01*
X168186988Y-105959488D01*
X168186982Y-105959493D01*
X168084493Y-106061982D01*
X168084488Y-106061988D01*
X168012017Y-106187511D01*
X168012016Y-106187515D01*
X167974500Y-106327525D01*
X155350500Y-106327525D01*
X155350500Y-104677525D01*
X170174500Y-104677525D01*
X170174500Y-104822475D01*
X170212016Y-104962485D01*
X170212017Y-104962488D01*
X170284488Y-105088011D01*
X170284490Y-105088013D01*
X170284491Y-105088015D01*
X170386985Y-105190509D01*
X170386986Y-105190510D01*
X170386988Y-105190511D01*
X170512511Y-105262982D01*
X170512512Y-105262982D01*
X170512515Y-105262984D01*
X170652525Y-105300500D01*
X170652528Y-105300500D01*
X170797472Y-105300500D01*
X170797475Y-105300500D01*
X170937485Y-105262984D01*
X171063015Y-105190509D01*
X171063019Y-105190504D01*
X171069461Y-105185562D01*
X171070403Y-105186790D01*
X171123642Y-105157720D01*
X171193334Y-105162704D01*
X171229997Y-105186267D01*
X171230539Y-105185562D01*
X171236988Y-105190511D01*
X171362511Y-105262982D01*
X171362512Y-105262982D01*
X171362515Y-105262984D01*
X171502525Y-105300500D01*
X171502528Y-105300500D01*
X171647472Y-105300500D01*
X171647475Y-105300500D01*
X171787485Y-105262984D01*
X171913015Y-105190509D01*
X172015509Y-105088015D01*
X172087984Y-104962485D01*
X172125500Y-104822475D01*
X172125500Y-104677525D01*
X172087984Y-104537515D01*
X172015509Y-104411985D01*
X171913015Y-104309491D01*
X171913013Y-104309490D01*
X171913011Y-104309488D01*
X171787488Y-104237017D01*
X171787489Y-104237017D01*
X171776006Y-104233940D01*
X171647475Y-104199500D01*
X171502525Y-104199500D01*
X171373993Y-104233940D01*
X171362511Y-104237017D01*
X171236988Y-104309488D01*
X171230539Y-104314438D01*
X171229596Y-104313209D01*
X171176358Y-104342280D01*
X171106666Y-104337296D01*
X171070002Y-104313732D01*
X171069461Y-104314438D01*
X171063011Y-104309488D01*
X170937488Y-104237017D01*
X170937489Y-104237017D01*
X170926006Y-104233940D01*
X170797475Y-104199500D01*
X170652525Y-104199500D01*
X170523993Y-104233940D01*
X170512511Y-104237017D01*
X170386988Y-104309488D01*
X170386982Y-104309493D01*
X170284493Y-104411982D01*
X170284488Y-104411988D01*
X170212017Y-104537511D01*
X170212016Y-104537515D01*
X170174500Y-104677525D01*
X155350500Y-104677525D01*
X155350500Y-96877525D01*
X155999500Y-96877525D01*
X155999500Y-97022475D01*
X156010252Y-97062601D01*
X156037017Y-97162488D01*
X156109488Y-97288011D01*
X156109490Y-97288013D01*
X156109491Y-97288015D01*
X156211985Y-97390509D01*
X156211986Y-97390510D01*
X156211988Y-97390511D01*
X156337511Y-97462982D01*
X156337512Y-97462982D01*
X156337515Y-97462984D01*
X156477525Y-97500500D01*
X156477528Y-97500500D01*
X156622472Y-97500500D01*
X156622475Y-97500500D01*
X156762485Y-97462984D01*
X156888015Y-97390509D01*
X156990509Y-97288015D01*
X157062984Y-97162485D01*
X157100500Y-97022475D01*
X157100500Y-96937399D01*
X163669500Y-96937399D01*
X163669500Y-97062601D01*
X163701905Y-97183536D01*
X163764505Y-97291964D01*
X163853036Y-97380495D01*
X163961464Y-97443095D01*
X164082399Y-97475500D01*
X164082401Y-97475500D01*
X164207599Y-97475500D01*
X164207601Y-97475500D01*
X164328536Y-97443095D01*
X164436964Y-97380495D01*
X164525495Y-97291964D01*
X164588095Y-97183536D01*
X164620500Y-97062601D01*
X164620500Y-96937399D01*
X164588095Y-96816464D01*
X164525495Y-96708036D01*
X164436964Y-96619505D01*
X164328536Y-96556905D01*
X164328537Y-96556905D01*
X164288224Y-96546103D01*
X164207601Y-96524500D01*
X164082399Y-96524500D01*
X164001775Y-96546103D01*
X163961463Y-96556905D01*
X163853037Y-96619504D01*
X163853034Y-96619506D01*
X163764506Y-96708034D01*
X163764504Y-96708037D01*
X163701905Y-96816463D01*
X163701905Y-96816464D01*
X163669500Y-96937399D01*
X157100500Y-96937399D01*
X157100500Y-96877525D01*
X157062984Y-96737515D01*
X157045964Y-96708036D01*
X156990511Y-96611988D01*
X156990506Y-96611982D01*
X156888017Y-96509493D01*
X156888011Y-96509488D01*
X156762488Y-96437017D01*
X156762489Y-96437017D01*
X156751006Y-96433940D01*
X156622475Y-96399500D01*
X156477525Y-96399500D01*
X156348993Y-96433940D01*
X156337511Y-96437017D01*
X156211988Y-96509488D01*
X156211982Y-96509493D01*
X156109493Y-96611982D01*
X156109488Y-96611988D01*
X156037017Y-96737511D01*
X156037016Y-96737515D01*
X155999500Y-96877525D01*
X155350500Y-96877525D01*
X155350500Y-90437613D01*
X163376272Y-90437613D01*
X163376272Y-90562815D01*
X163408677Y-90683750D01*
X163471277Y-90792178D01*
X163559808Y-90880709D01*
X163668236Y-90943309D01*
X163789171Y-90975714D01*
X163789173Y-90975714D01*
X163914371Y-90975714D01*
X163914373Y-90975714D01*
X164035308Y-90943309D01*
X164143736Y-90880709D01*
X164232267Y-90792178D01*
X164294867Y-90683750D01*
X164327272Y-90562815D01*
X164327272Y-90437613D01*
X164294867Y-90316678D01*
X164232267Y-90208250D01*
X164143736Y-90119719D01*
X164035308Y-90057119D01*
X164035309Y-90057119D01*
X163994996Y-90046317D01*
X163914373Y-90024714D01*
X163789171Y-90024714D01*
X163708547Y-90046317D01*
X163668235Y-90057119D01*
X163559809Y-90119718D01*
X163559806Y-90119720D01*
X163471278Y-90208248D01*
X163471276Y-90208251D01*
X163408677Y-90316677D01*
X163408677Y-90316678D01*
X163376272Y-90437613D01*
X155350500Y-90437613D01*
X155350500Y-83177525D01*
X169749500Y-83177525D01*
X169749500Y-83322475D01*
X169783805Y-83450500D01*
X169787017Y-83462488D01*
X169859488Y-83588011D01*
X169859490Y-83588013D01*
X169859491Y-83588015D01*
X169961985Y-83690509D01*
X169961986Y-83690510D01*
X169961988Y-83690511D01*
X170087511Y-83762982D01*
X170087512Y-83762982D01*
X170087515Y-83762984D01*
X170227525Y-83800500D01*
X170227528Y-83800500D01*
X170372472Y-83800500D01*
X170372475Y-83800500D01*
X170512485Y-83762984D01*
X170638015Y-83690509D01*
X170740509Y-83588015D01*
X170812984Y-83462485D01*
X170850500Y-83322475D01*
X170850500Y-83252204D01*
X170870185Y-83185165D01*
X170922989Y-83139410D01*
X170992147Y-83129466D01*
X171055703Y-83158491D01*
X171081887Y-83190204D01*
X171109488Y-83238011D01*
X171109490Y-83238013D01*
X171109491Y-83238015D01*
X171211985Y-83340509D01*
X171211986Y-83340510D01*
X171211988Y-83340511D01*
X171337511Y-83412982D01*
X171337512Y-83412982D01*
X171337515Y-83412984D01*
X171477525Y-83450500D01*
X171477528Y-83450500D01*
X171622472Y-83450500D01*
X171622475Y-83450500D01*
X171762485Y-83412984D01*
X171888015Y-83340509D01*
X171990509Y-83238015D01*
X172062984Y-83112485D01*
X172100500Y-82972475D01*
X172100500Y-82827525D01*
X172062984Y-82687515D01*
X171990509Y-82561985D01*
X171888015Y-82459491D01*
X171888013Y-82459490D01*
X171888011Y-82459488D01*
X171762488Y-82387017D01*
X171762489Y-82387017D01*
X171751006Y-82383940D01*
X171622475Y-82349500D01*
X171477525Y-82349500D01*
X171348993Y-82383940D01*
X171337511Y-82387017D01*
X171211988Y-82459488D01*
X171211982Y-82459493D01*
X171109493Y-82561982D01*
X171109488Y-82561988D01*
X171037017Y-82687511D01*
X171037016Y-82687515D01*
X170999500Y-82827525D01*
X170999500Y-82827527D01*
X170999500Y-82897795D01*
X170979815Y-82964834D01*
X170927011Y-83010589D01*
X170857853Y-83020533D01*
X170794297Y-82991508D01*
X170768114Y-82959796D01*
X170740513Y-82911991D01*
X170740510Y-82911988D01*
X170740509Y-82911985D01*
X170638015Y-82809491D01*
X170638013Y-82809490D01*
X170638011Y-82809488D01*
X170512488Y-82737017D01*
X170512489Y-82737017D01*
X170501006Y-82733940D01*
X170372475Y-82699500D01*
X170227525Y-82699500D01*
X170098993Y-82733940D01*
X170087511Y-82737017D01*
X169961988Y-82809488D01*
X169961982Y-82809493D01*
X169859493Y-82911982D01*
X169859488Y-82911988D01*
X169787017Y-83037511D01*
X169787016Y-83037515D01*
X169749500Y-83177525D01*
X155350500Y-83177525D01*
X155350500Y-80624500D01*
X155370185Y-80557461D01*
X155422989Y-80511706D01*
X155474500Y-80500500D01*
X174525500Y-80500500D01*
X174592539Y-80520185D01*
G37*
%TD.AperFunction*%
%TD*%
M02*
