%TF.GenerationSoftware,KiCad,Pcbnew,10.0.4*%
%TF.CreationDate,2026-07-18T00:46:46-04:00*%
%TF.ProjectId,ROV_PCIe_Adapter,524f565f-5043-4496-955f-416461707465,rev?*%
%TF.SameCoordinates,Original*%
%TF.FileFunction,Copper,L4,Bot*%
%TF.FilePolarity,Positive*%
%FSLAX46Y46*%
G04 Gerber Fmt 4.6, Leading zero omitted, Abs format (unit mm)*
G04 Created by KiCad (PCBNEW 10.0.4) date 2026-07-18 00:46:46*
%MOMM*%
%LPD*%
G01*
G04 APERTURE LIST*
%TA.AperFunction,ConnectorPad*%
%ADD10R,0.700000X3.200000*%
%TD*%
%TA.AperFunction,ConnectorPad*%
%ADD11R,0.700000X4.300000*%
%TD*%
%TA.AperFunction,ViaPad*%
%ADD12C,0.450000*%
%TD*%
%TA.AperFunction,ViaPad*%
%ADD13C,0.600000*%
%TD*%
%TA.AperFunction,Conductor*%
%ADD14C,0.500000*%
%TD*%
%TA.AperFunction,Conductor*%
%ADD15C,0.300000*%
%TD*%
%TA.AperFunction,Conductor*%
%ADD16C,0.208300*%
%TD*%
G04 APERTURE END LIST*
D10*
%TO.P,J1,A1,~{PRSNT1}_A1*%
%TO.N,Net-(J1-~{PRSNT1})*%
X155500000Y-112700000D03*
D11*
%TO.P,J1,A2,+12V_A2*%
%TO.N,+12V*%
X156500000Y-113250000D03*
%TO.P,J1,A3,+12V_A3*%
X157500000Y-113250000D03*
%TO.P,J1,A4,GND_A4*%
%TO.N,GND*%
X158500000Y-113250000D03*
%TO.P,J1,A5,JTAG2_A5*%
%TO.N,unconnected-(J1-JTAG2-PadA5)*%
X159500000Y-113250000D03*
%TO.P,J1,A6,JTAG3_A6*%
%TO.N,unconnected-(J1-JTAG3-PadA6)*%
X160500000Y-113250000D03*
%TO.P,J1,A7,JTAG4_A7*%
%TO.N,unconnected-(J1-JTAG4-PadA7)*%
X161500000Y-113250000D03*
%TO.P,J1,A8,JTAG5_A8*%
%TO.N,unconnected-(J1-JTAG5-PadA8)*%
X162500000Y-113250000D03*
%TO.P,J1,A9,+3.3V_A9*%
%TO.N,+3.3V*%
X163500000Y-113250000D03*
%TO.P,J1,A10,+3.3V_A10*%
X164500000Y-113250000D03*
%TO.P,J1,A11,~{PERST}_A11*%
%TO.N,/HOST_PCIE_PERSTN*%
X165500000Y-113250000D03*
%TO.P,J1,A12,GND_A12*%
%TO.N,GND*%
X168500000Y-113250000D03*
%TO.P,J1,A13,REFCLK+_A13*%
%TO.N,/HOST_PCIE_CLK_P*%
X169500000Y-113250000D03*
%TO.P,J1,A14,REFCLK-_A14*%
%TO.N,/HOST_PCIE_CLK_N*%
X170500000Y-113250000D03*
%TO.P,J1,A15,GND_A15*%
%TO.N,GND*%
X171500000Y-113250000D03*
%TO.P,J1,A16,PERp0_A16*%
%TO.N,/HOST_PCIE_RX_P*%
X172500000Y-113250000D03*
%TO.P,J1,A17,PERn0_A17*%
%TO.N,/HOST_PCIE_RX_N*%
X173500000Y-113250000D03*
%TO.P,J1,A18,GND_A18*%
%TO.N,GND*%
X174500000Y-113250000D03*
%TD*%
D12*
%TO.N,GND*%
X156750000Y-80750000D03*
X156500000Y-81250000D03*
D13*
%TO.N,+5V*%
X156550000Y-96950000D03*
D12*
X164145000Y-97000000D03*
%TO.N,/PCIE_PWR_EN*%
X163851772Y-90500214D03*
D13*
X170300000Y-83250000D03*
%TO.N,GND*%
X171900000Y-109400000D03*
D12*
X158775230Y-98652914D03*
D13*
X161500000Y-110500000D03*
D12*
X162000000Y-93500000D03*
D13*
X167650000Y-106400000D03*
D12*
X159728126Y-98302015D03*
D13*
X170250000Y-106400000D03*
X174350000Y-110500000D03*
X172400000Y-104800000D03*
D12*
X159250000Y-105000000D03*
D13*
X169550000Y-82800000D03*
D12*
X158000000Y-98000000D03*
X158000000Y-99475000D03*
X160250000Y-80750000D03*
X162000000Y-88500000D03*
X156500000Y-105000000D03*
X165500000Y-90500000D03*
D13*
X165050000Y-83450000D03*
D12*
X164500000Y-88500000D03*
X163500000Y-97675000D03*
X164000000Y-99500000D03*
X155600000Y-106250000D03*
X167000000Y-101250000D03*
X164000000Y-93500000D03*
X161274720Y-98307681D03*
X161299441Y-100355386D03*
X161250000Y-81500000D03*
D13*
X158500000Y-110600000D03*
D12*
X166000000Y-102000000D03*
D13*
X168750000Y-110400000D03*
D12*
X168426499Y-86593960D03*
X159742031Y-100355385D03*
X164750000Y-85750000D03*
X166000000Y-100500000D03*
D13*
X169900000Y-104750000D03*
X168050000Y-83350000D03*
X166550000Y-82800000D03*
%TO.N,+12V*%
X156500000Y-110550000D03*
X157500000Y-110600000D03*
%TO.N,/HOST_PCIE_CLK_P*%
X168525000Y-106400000D03*
%TO.N,/HOST_PCIE_CLK_N*%
X169375000Y-106400000D03*
%TO.N,/HOST_PCIE_RX_P*%
X170725000Y-104750000D03*
%TO.N,/HOST_PCIE_RX_N*%
X171575000Y-104750000D03*
%TO.N,/HOST_PCIE_PERSTN*%
X171550000Y-82900000D03*
%TO.N,Net-(J1-~{PRSNT1})*%
X170800000Y-107350000D03*
X172056893Y-108615533D03*
X162000000Y-107350000D03*
D12*
%TO.N,+3.3V*%
X163500000Y-110500000D03*
X162500000Y-110500000D03*
%TD*%
%TO.N,+5V*%
D14*
X156600000Y-97000000D02*
X156550000Y-96950000D01*
X164145000Y-97000000D02*
X156600000Y-97000000D01*
%TO.N,/PCIE_PWR_EN*%
D15*
X164557547Y-89794439D02*
X169644439Y-89794439D01*
X170050000Y-83500000D02*
X170300000Y-83250000D01*
X170050000Y-89400000D02*
X170050000Y-83500000D01*
X169644439Y-89794439D02*
X169650000Y-89800000D01*
X163851772Y-90500214D02*
X164557547Y-89794439D01*
X169650000Y-89800000D02*
X170050000Y-89400000D01*
%TO.N,GND*%
X171900000Y-109400000D02*
X171500000Y-109800000D01*
X174500000Y-113250000D02*
X174500000Y-110650000D01*
X168800000Y-110450000D02*
X168800000Y-110500000D01*
X171500000Y-109800000D02*
X171500000Y-113250000D01*
X174500000Y-110650000D02*
X174350000Y-110500000D01*
X168750000Y-110400000D02*
X168800000Y-110450000D01*
X158500000Y-113250000D02*
X158500000Y-110600000D01*
X168600000Y-110700000D02*
X168600000Y-113250000D01*
X168800000Y-110500000D02*
X168600000Y-110700000D01*
%TO.N,/HOST_PCIE_CLK_P*%
D16*
X169500000Y-113250000D02*
X169500000Y-110024999D01*
X169833350Y-108719030D02*
X168783350Y-107669030D01*
X169500000Y-110024999D02*
X169833350Y-109691649D01*
X169833350Y-109691649D02*
X169833350Y-108719030D01*
X168783350Y-107669030D02*
X168783350Y-106658350D01*
X168783350Y-106658350D02*
X168525000Y-106400000D01*
%TO.N,/HOST_PCIE_CLK_N*%
X169116650Y-107530970D02*
X169116650Y-106658350D01*
X170166650Y-108580970D02*
X169116650Y-107530970D01*
X170166650Y-109691649D02*
X170166650Y-108580970D01*
X170500000Y-110024999D02*
X170166650Y-109691649D01*
X169116650Y-106658350D02*
X169375000Y-106400000D01*
X170500000Y-113250000D02*
X170500000Y-110024999D01*
%TO.N,/HOST_PCIE_RX_P*%
X172833350Y-107919030D02*
X170983350Y-106069030D01*
X172500000Y-113250000D02*
X172500000Y-110024999D01*
X170983350Y-105008350D02*
X170725000Y-104750000D01*
X172500000Y-110024999D02*
X172833350Y-109691649D01*
X172833350Y-109691649D02*
X172833350Y-107919030D01*
X170983350Y-106069030D02*
X170983350Y-105008350D01*
%TO.N,/HOST_PCIE_RX_N*%
X173166650Y-109691649D02*
X173166650Y-107780970D01*
X171316650Y-105930970D02*
X171316650Y-105008350D01*
X173500000Y-110024999D02*
X173166650Y-109691649D01*
X173500000Y-113250000D02*
X173500000Y-110024999D01*
X173166650Y-107780970D02*
X171316650Y-105930970D01*
X171316650Y-105008350D02*
X171575000Y-104750000D01*
%TO.N,/HOST_PCIE_PERSTN*%
D15*
X171550000Y-82900000D02*
X171550000Y-83300000D01*
X170550000Y-92450000D02*
X165400000Y-97600000D01*
X171550000Y-83300000D02*
X170550000Y-84300000D01*
X170550000Y-84300000D02*
X170550000Y-92450000D01*
X165400000Y-97600000D02*
X165400000Y-113250000D01*
%TO.N,Net-(J1-~{PRSNT1})*%
X155500000Y-107900000D02*
X155500000Y-112700000D01*
X162000000Y-107350000D02*
X161950000Y-107300000D01*
X156100000Y-107300000D02*
X155500000Y-107900000D01*
X172056893Y-108615533D02*
X172056893Y-108606893D01*
X161950000Y-107300000D02*
X156100000Y-107300000D01*
X172056893Y-108606893D02*
X170800000Y-107350000D01*
%TD*%
%TA.AperFunction,Conductor*%
%TO.N,+12V*%
G36*
X157893039Y-110269685D02*
G01*
X157938794Y-110322489D01*
X157950000Y-110374000D01*
X157950000Y-110525658D01*
X157949500Y-110527525D01*
X157949500Y-110672475D01*
X157950000Y-110674341D01*
X157950000Y-110910817D01*
X157930315Y-110977856D01*
X157929103Y-110979706D01*
X157914033Y-111002259D01*
X157899500Y-111075323D01*
X157899500Y-113576000D01*
X157879815Y-113643039D01*
X157827011Y-113688794D01*
X157775500Y-113700000D01*
X156224500Y-113700000D01*
X156157461Y-113680315D01*
X156111706Y-113627511D01*
X156100500Y-113576000D01*
X156100500Y-111075323D01*
X156100499Y-111075321D01*
X156085967Y-111002264D01*
X156085966Y-111002260D01*
X156030600Y-110919398D01*
X155955609Y-110869291D01*
X155910804Y-110815679D01*
X155900500Y-110766189D01*
X155900500Y-110374000D01*
X155920185Y-110306961D01*
X155972989Y-110261206D01*
X156024500Y-110250000D01*
X157826000Y-110250000D01*
X157893039Y-110269685D01*
G37*
%TD.AperFunction*%
%TD*%
%TA.AperFunction,Conductor*%
%TO.N,+3.3V*%
G36*
X164942539Y-110269685D02*
G01*
X164988294Y-110322489D01*
X164999500Y-110374000D01*
X164999500Y-110837935D01*
X164979815Y-110904974D01*
X164975261Y-110910624D01*
X164914034Y-111002260D01*
X164914032Y-111002264D01*
X164899500Y-111075321D01*
X164899500Y-113576000D01*
X164879815Y-113643039D01*
X164827011Y-113688794D01*
X164775500Y-113700000D01*
X163224500Y-113700000D01*
X163157461Y-113680315D01*
X163111706Y-113627511D01*
X163100500Y-113576000D01*
X163100500Y-111075323D01*
X163100499Y-111075321D01*
X163085967Y-111002264D01*
X163085966Y-111002260D01*
X163030601Y-110919399D01*
X162947740Y-110864034D01*
X162947739Y-110864033D01*
X162947735Y-110864032D01*
X162874677Y-110849500D01*
X162874674Y-110849500D01*
X162137871Y-110849500D01*
X162070832Y-110829815D01*
X162025077Y-110777011D01*
X162015133Y-110707853D01*
X162018096Y-110693406D01*
X162050500Y-110572475D01*
X162050500Y-110427525D01*
X162044757Y-110406092D01*
X162046420Y-110336243D01*
X162085583Y-110278381D01*
X162149811Y-110250877D01*
X162164532Y-110250000D01*
X164875500Y-110250000D01*
X164942539Y-110269685D01*
G37*
%TD.AperFunction*%
%TD*%
M02*
