%TF.GenerationSoftware,KiCad,Pcbnew,10.0.4*%
%TF.CreationDate,2026-07-18T00:46:46-04:00*%
%TF.ProjectId,ROV_PCIe_Adapter,524f565f-5043-4496-955f-416461707465,rev?*%
%TF.SameCoordinates,Original*%
%TF.FileFunction,Copper,L1,Top*%
%TF.FilePolarity,Positive*%
%FSLAX46Y46*%
G04 Gerber Fmt 4.6, Leading zero omitted, Abs format (unit mm)*
G04 Created by KiCad (PCBNEW 10.0.4) date 2026-07-18 00:46:46*
%MOMM*%
%LPD*%
G01*
G04 APERTURE LIST*
G04 Aperture macros list*
%AMRoundRect*
0 Rectangle with rounded corners*
0 $1 Rounding radius*
0 $2 $3 $4 $5 $6 $7 $8 $9 X,Y pos of 4 corners*
0 Add a 4 corners polygon primitive as box body*
4,1,4,$2,$3,$4,$5,$6,$7,$8,$9,$2,$3,0*
0 Add four circle primitives for the rounded corners*
1,1,$1+$1,$2,$3*
1,1,$1+$1,$4,$5*
1,1,$1+$1,$6,$7*
1,1,$1+$1,$8,$9*
0 Add four rect primitives between the rounded corners*
20,1,$1+$1,$2,$3,$4,$5,0*
20,1,$1+$1,$4,$5,$6,$7,0*
20,1,$1+$1,$6,$7,$8,$9,0*
20,1,$1+$1,$8,$9,$2,$3,0*%
G04 Aperture macros list end*
%TA.AperFunction,SMDPad,CuDef*%
%ADD10RoundRect,0.200000X0.275000X-0.200000X0.275000X0.200000X-0.275000X0.200000X-0.275000X-0.200000X0*%
%TD*%
%TA.AperFunction,SMDPad,CuDef*%
%ADD11RoundRect,0.200000X-0.200000X-0.275000X0.200000X-0.275000X0.200000X0.275000X-0.200000X0.275000X0*%
%TD*%
%TA.AperFunction,SMDPad,CuDef*%
%ADD12RoundRect,0.218750X0.256250X-0.218750X0.256250X0.218750X-0.256250X0.218750X-0.256250X-0.218750X0*%
%TD*%
%TA.AperFunction,SMDPad,CuDef*%
%ADD13RoundRect,0.200000X0.200000X0.275000X-0.200000X0.275000X-0.200000X-0.275000X0.200000X-0.275000X0*%
%TD*%
%TA.AperFunction,SMDPad,CuDef*%
%ADD14RoundRect,0.140000X0.170000X-0.140000X0.170000X0.140000X-0.170000X0.140000X-0.170000X-0.140000X0*%
%TD*%
%TA.AperFunction,SMDPad,CuDef*%
%ADD15RoundRect,0.135000X0.135000X0.185000X-0.135000X0.185000X-0.135000X-0.185000X0.135000X-0.185000X0*%
%TD*%
%TA.AperFunction,SMDPad,CuDef*%
%ADD16RoundRect,0.250000X0.650000X-0.325000X0.650000X0.325000X-0.650000X0.325000X-0.650000X-0.325000X0*%
%TD*%
%TA.AperFunction,SMDPad,CuDef*%
%ADD17RoundRect,0.140000X-0.140000X-0.170000X0.140000X-0.170000X0.140000X0.170000X-0.140000X0.170000X0*%
%TD*%
%TA.AperFunction,SMDPad,CuDef*%
%ADD18R,0.600000X1.500000*%
%TD*%
%TA.AperFunction,SMDPad,CuDef*%
%ADD19R,0.800000X1.500000*%
%TD*%
%TA.AperFunction,SMDPad,CuDef*%
%ADD20RoundRect,0.150000X-0.512500X-0.150000X0.512500X-0.150000X0.512500X0.150000X-0.512500X0.150000X0*%
%TD*%
%TA.AperFunction,SMDPad,CuDef*%
%ADD21RoundRect,0.250000X-0.325000X-0.650000X0.325000X-0.650000X0.325000X0.650000X-0.325000X0.650000X0*%
%TD*%
%TA.AperFunction,SMDPad,CuDef*%
%ADD22RoundRect,0.250000X0.475000X-0.250000X0.475000X0.250000X-0.475000X0.250000X-0.475000X-0.250000X0*%
%TD*%
%TA.AperFunction,SMDPad,CuDef*%
%ADD23RoundRect,0.250000X-1.450000X0.312500X-1.450000X-0.312500X1.450000X-0.312500X1.450000X0.312500X0*%
%TD*%
%TA.AperFunction,SMDPad,CuDef*%
%ADD24RoundRect,0.250000X0.250000X0.475000X-0.250000X0.475000X-0.250000X-0.475000X0.250000X-0.475000X0*%
%TD*%
%TA.AperFunction,SMDPad,CuDef*%
%ADD25R,1.500000X4.200000*%
%TD*%
%TA.AperFunction,ConnectorPad*%
%ADD26R,0.700000X4.300000*%
%TD*%
%TA.AperFunction,ConnectorPad*%
%ADD27R,0.700000X3.200000*%
%TD*%
%TA.AperFunction,ViaPad*%
%ADD28C,0.450000*%
%TD*%
%TA.AperFunction,ViaPad*%
%ADD29C,0.600000*%
%TD*%
%TA.AperFunction,Conductor*%
%ADD30C,0.500000*%
%TD*%
%TA.AperFunction,Conductor*%
%ADD31C,0.300000*%
%TD*%
%TA.AperFunction,Conductor*%
%ADD32C,1.000000*%
%TD*%
%TA.AperFunction,Conductor*%
%ADD33C,0.208300*%
%TD*%
G04 APERTURE END LIST*
D10*
%TO.P,R6,1*%
%TO.N,Net-(D1-K)*%
X166000000Y-102862500D03*
%TO.P,R6,2*%
%TO.N,GND*%
X166000000Y-101212500D03*
%TD*%
D11*
%TO.P,R3,1*%
%TO.N,+5V*%
X164925000Y-98000000D03*
%TO.P,R3,2*%
%TO.N,Net-(U1-VFB)*%
X166575000Y-98000000D03*
%TD*%
D12*
%TO.P,D1,1,K_1*%
%TO.N,Net-(D1-K)*%
X164500000Y-102787500D03*
%TO.P,D1,2,A_2*%
%TO.N,+12V*%
X164500000Y-101212500D03*
%TD*%
D11*
%TO.P,R2,1*%
%TO.N,/PCIE_PWR_EN*%
X163026772Y-90500000D03*
%TO.P,R2,2*%
%TO.N,GND*%
X164676772Y-90500000D03*
%TD*%
D13*
%TO.P,R4,1*%
%TO.N,Net-(U1-VFB)*%
X166575000Y-99500000D03*
%TO.P,R4,2*%
%TO.N,GND*%
X164925000Y-99500000D03*
%TD*%
D14*
%TO.P,C8,1*%
%TO.N,+12V*%
X156500000Y-107230000D03*
%TO.P,C8,2*%
%TO.N,GND*%
X156500000Y-106270000D03*
%TD*%
D15*
%TO.P,R5,1*%
%TO.N,Net-(U1-VBST)*%
X165007202Y-92095772D03*
%TO.P,R5,2*%
%TO.N,Net-(C3-Pad2)*%
X163987202Y-92095772D03*
%TD*%
D12*
%TO.P,D2,1,K_1*%
%TO.N,Net-(D2-K)*%
X156505000Y-100287500D03*
%TO.P,D2,2,A_2*%
%TO.N,+5V*%
X156505000Y-98712500D03*
%TD*%
D16*
%TO.P,C9,1*%
%TO.N,Net-(C10-Pad1)*%
X158000000Y-84225000D03*
%TO.P,C9,2*%
%TO.N,GND*%
X158000000Y-81275000D03*
%TD*%
D10*
%TO.P,R7,1*%
%TO.N,Net-(D2-K)*%
X158000000Y-100325000D03*
%TO.P,R7,2*%
%TO.N,GND*%
X158000000Y-98675000D03*
%TD*%
D14*
%TO.P,C10,1*%
%TO.N,Net-(C10-Pad1)*%
X160250000Y-82480000D03*
%TO.P,C10,2*%
%TO.N,GND*%
X160250000Y-81520000D03*
%TD*%
D17*
%TO.P,C6,1*%
%TO.N,+12V*%
X162455000Y-96735000D03*
%TO.P,C6,2*%
%TO.N,GND*%
X163415000Y-96735000D03*
%TD*%
D18*
%TO.P,J2,1,1_1*%
%TO.N,Net-(C10-Pad1)*%
X164050017Y-84500000D03*
%TO.P,J2,2,2_2*%
X164550016Y-81700000D03*
%TO.P,J2,3,3_3*%
%TO.N,GND*%
X165050017Y-84500000D03*
%TO.P,J2,4,4_4*%
%TO.N,/HOST_PCIE_CLK_P*%
X165550016Y-81700000D03*
%TO.P,J2,5,5_5*%
%TO.N,/HOST_PCIE_CLK_N*%
X166050017Y-84500000D03*
%TO.P,J2,6,6_6*%
%TO.N,GND*%
X166550017Y-81700000D03*
%TO.P,J2,7,7_7*%
%TO.N,/HOST_PCIE_RX_P*%
X167050017Y-84500000D03*
%TO.P,J2,8,8_8*%
%TO.N,/HOST_PCIE_RX_N*%
X167550017Y-81700000D03*
%TO.P,J2,9,9_9*%
%TO.N,GND*%
X168050017Y-84500000D03*
%TO.P,J2,10,10_10*%
%TO.N,/HOST_PCIE_TX_P*%
X168550017Y-81700000D03*
%TO.P,J2,11,11_11*%
%TO.N,/HOST_PCIE_TX_N*%
X169050017Y-84500000D03*
%TO.P,J2,12,12_12*%
%TO.N,GND*%
X169550017Y-81700000D03*
%TO.P,J2,13,13_13*%
%TO.N,/PCIE_PWR_EN*%
X170050017Y-84500000D03*
%TO.P,J2,14,14_14*%
%TO.N,unconnected-(J2-Pad14)*%
X170550017Y-81700000D03*
%TO.P,J2,15,15_15*%
%TO.N,unconnected-(J2-Pad15)*%
X171050017Y-84500000D03*
%TO.P,J2,16,16_16*%
%TO.N,/HOST_PCIE_PERSTN*%
X171550017Y-81700000D03*
D19*
%TO.P,J2,P1*%
%TO.N,N/C*%
X163050018Y-84500000D03*
%TO.P,J2,P2*%
X172550000Y-84500000D03*
%TO.P,J2,P3*%
X163050018Y-81700000D03*
%TO.P,J2,P4*%
X172550000Y-81700000D03*
%TD*%
D17*
%TO.P,C5,1*%
%TO.N,+5V*%
X165020000Y-96678599D03*
%TO.P,C5,2*%
%TO.N,Net-(U1-VFB)*%
X165980000Y-96678599D03*
%TD*%
%TO.P,C3,1*%
%TO.N,Net-(U1-SW)*%
X162090817Y-92097907D03*
%TO.P,C3,2*%
%TO.N,Net-(C3-Pad2)*%
X163050817Y-92097907D03*
%TD*%
D20*
%TO.P,U1,1,GND_1*%
%TO.N,GND*%
X162950000Y-93500000D03*
%TO.P,U1,2,SW_2*%
%TO.N,Net-(U1-SW)*%
X162950000Y-94450000D03*
%TO.P,U1,3,VIN_3*%
%TO.N,+12V*%
X162950000Y-95400000D03*
%TO.P,U1,4,VFB_4*%
%TO.N,Net-(U1-VFB)*%
X165225000Y-95400000D03*
%TO.P,U1,5,EN_5*%
%TO.N,+12V*%
X165225000Y-94450000D03*
%TO.P,U1,6,VBST_6*%
%TO.N,Net-(U1-VBST)*%
X165225000Y-93500000D03*
%TD*%
D21*
%TO.P,C4,1*%
%TO.N,+5V*%
X160214185Y-88500000D03*
%TO.P,C4,2*%
%TO.N,GND*%
X163164185Y-88500000D03*
%TD*%
D22*
%TO.P,C7,1*%
%TO.N,+12V*%
X158000000Y-106950000D03*
%TO.P,C7,2*%
%TO.N,GND*%
X158000000Y-105050000D03*
%TD*%
D23*
%TO.P,F1,1*%
%TO.N,Net-(C10-Pad1)*%
X157250000Y-86512500D03*
%TO.P,F1,2*%
%TO.N,+5V*%
X157250000Y-90787500D03*
%TD*%
D24*
%TO.P,C1,1*%
%TO.N,+12V*%
X162450000Y-98300000D03*
%TO.P,C1,2*%
%TO.N,GND*%
X160550000Y-98300000D03*
%TD*%
D25*
%TO.P,L1,1,1_1*%
%TO.N,Net-(U1-SW)*%
X160150000Y-94450000D03*
%TO.P,L1,2,2_2*%
%TO.N,+5V*%
X156550000Y-94450000D03*
%TD*%
D24*
%TO.P,C2,1*%
%TO.N,+12V*%
X162450000Y-100350000D03*
%TO.P,C2,2*%
%TO.N,GND*%
X160550000Y-100350000D03*
%TD*%
D26*
%TO.P,J1,B1,+12V_B1*%
%TO.N,+12V*%
X155500000Y-113250000D03*
%TO.P,J1,B2,+12V_B2*%
X156500000Y-113250000D03*
%TO.P,J1,B3,+12V_B3*%
X157500000Y-113250000D03*
%TO.P,J1,B4,GND_B4*%
%TO.N,GND*%
X158500000Y-113250000D03*
%TO.P,J1,B5,SMCLK_B5*%
%TO.N,unconnected-(J1-SMCLK-PadB5)*%
X159500000Y-113250000D03*
%TO.P,J1,B6,SMDAT_B6*%
%TO.N,unconnected-(J1-SMDAT-PadB6)*%
X160500000Y-113250000D03*
%TO.P,J1,B7,GND_B7*%
%TO.N,GND*%
X161500000Y-113250000D03*
%TO.P,J1,B8,+3.3V_B8*%
%TO.N,+3.3V*%
X162500000Y-113250000D03*
%TO.P,J1,B9,JTAG1_B9*%
%TO.N,unconnected-(J1-JTAG1-PadB9)*%
X163500000Y-113250000D03*
%TO.P,J1,B10,3.3Vaux_B10*%
%TO.N,+3.3V_AUX*%
X164500000Y-113250000D03*
%TO.P,J1,B11,~{WAKE}_B11*%
%TO.N,/HOST_PCIE_WAKEN*%
X165500000Y-113250000D03*
%TO.P,J1,B12,RSVD_B12*%
%TO.N,unconnected-(J1-RSVD-PadB12)*%
X168500000Y-113250000D03*
%TO.P,J1,B13,GND_B13*%
%TO.N,GND*%
X169500000Y-113250000D03*
%TO.P,J1,B14,PETp0_B14*%
%TO.N,/HOST_PCIE_TX_P*%
X170500000Y-113250000D03*
%TO.P,J1,B15,PETn0_B15*%
%TO.N,/HOST_PCIE_TX_N*%
X171500000Y-113250000D03*
%TO.P,J1,B16,GND_B16*%
%TO.N,GND*%
X172500000Y-113250000D03*
D27*
%TO.P,J1,B17,~{PRSNT2}_B17*%
%TO.N,Net-(J1-~{PRSNT1})*%
X173500000Y-112700000D03*
D26*
%TO.P,J1,B18,GND_B18*%
%TO.N,GND*%
X174500000Y-113250000D03*
%TD*%
D11*
%TO.P,R1,1*%
%TO.N,+5V*%
X159975000Y-90500000D03*
%TO.P,R1,2*%
%TO.N,/PCIE_PWR_EN*%
X161625000Y-90500000D03*
%TD*%
D28*
%TO.N,GND*%
X156750000Y-80750000D03*
X156500000Y-81250000D03*
D29*
%TO.N,+5V*%
X156550000Y-96950000D03*
D28*
X164145000Y-97000000D03*
%TO.N,/PCIE_PWR_EN*%
X163851772Y-90500214D03*
D29*
X170300000Y-83250000D03*
%TO.N,GND*%
X171900000Y-109400000D03*
D28*
X158775230Y-98652914D03*
D29*
X161500000Y-110500000D03*
D28*
X162000000Y-93500000D03*
D29*
X167650000Y-106400000D03*
D28*
X159728126Y-98302015D03*
D29*
X170250000Y-106400000D03*
X174350000Y-110500000D03*
X172400000Y-104800000D03*
D28*
X159250000Y-105000000D03*
D29*
X169550000Y-82800000D03*
D28*
X158000000Y-98000000D03*
X158000000Y-99475000D03*
X160250000Y-80750000D03*
X162000000Y-88500000D03*
X156500000Y-105000000D03*
X165500000Y-90500000D03*
D29*
X165050000Y-83450000D03*
D28*
X164500000Y-88500000D03*
X163500000Y-97675000D03*
X164000000Y-99500000D03*
X155600000Y-106250000D03*
X167000000Y-101250000D03*
X164000000Y-93500000D03*
X161274720Y-98307681D03*
X161299441Y-100355386D03*
X161250000Y-81500000D03*
D29*
X158500000Y-110600000D03*
D28*
X166000000Y-102000000D03*
D29*
X168750000Y-110400000D03*
D28*
X168426499Y-86593960D03*
X159742031Y-100355385D03*
X164750000Y-85750000D03*
X166000000Y-100500000D03*
D29*
X169900000Y-104750000D03*
X168050000Y-83350000D03*
X166550000Y-82800000D03*
%TO.N,+12V*%
X156500000Y-110550000D03*
X157500000Y-110600000D03*
%TO.N,/HOST_PCIE_CLK_P*%
X168525000Y-106400000D03*
%TO.N,/HOST_PCIE_CLK_N*%
X169375000Y-106400000D03*
%TO.N,/HOST_PCIE_RX_P*%
X170725000Y-104750000D03*
%TO.N,/HOST_PCIE_RX_N*%
X171575000Y-104750000D03*
%TO.N,/HOST_PCIE_PERSTN*%
X171550000Y-82900000D03*
%TO.N,Net-(J1-~{PRSNT1})*%
X170800000Y-107350000D03*
X172056893Y-108615533D03*
X162000000Y-107350000D03*
D28*
%TO.N,+3.3V*%
X163500000Y-110500000D03*
X162500000Y-110500000D03*
%TD*%
%TO.N,GND*%
D30*
X159275000Y-81275000D02*
X158000000Y-81275000D01*
X159520000Y-81520000D02*
X159275000Y-81275000D01*
X160250000Y-81520000D02*
X159520000Y-81520000D01*
X157275000Y-81275000D02*
X156750000Y-80750000D01*
X158000000Y-81275000D02*
X157275000Y-81275000D01*
X156525000Y-81275000D02*
X156500000Y-81250000D01*
X158000000Y-81275000D02*
X156525000Y-81275000D01*
%TO.N,+5V*%
X164466401Y-96678599D02*
X164145000Y-97000000D01*
X156505000Y-98712500D02*
X156505000Y-96995000D01*
X165020000Y-96678599D02*
X164466401Y-96678599D01*
D31*
X159962500Y-90787500D02*
X159975000Y-90800000D01*
D30*
X165020000Y-97905000D02*
X164925000Y-98000000D01*
X156505000Y-96995000D02*
X156550000Y-96950000D01*
X165020000Y-96678599D02*
X165020000Y-97905000D01*
%TO.N,Net-(U1-VFB)*%
X166575000Y-96500000D02*
X166575000Y-97273599D01*
X166396401Y-96678599D02*
X166575000Y-96500000D01*
X165225000Y-95400000D02*
X166400000Y-95400000D01*
X166400000Y-95400000D02*
X166575000Y-95575000D01*
X166575000Y-99500000D02*
X166575000Y-98000000D01*
X166575000Y-95575000D02*
X166575000Y-96500000D01*
X166575000Y-98000000D02*
X166575000Y-97273599D01*
X165980000Y-96678599D02*
X166396401Y-96678599D01*
%TO.N,/PCIE_PWR_EN*%
D31*
X170050000Y-84499983D02*
X170050017Y-84500000D01*
X170300000Y-83250000D02*
X170050000Y-83500000D01*
X170050000Y-83500000D02*
X170050000Y-84499983D01*
X163026772Y-90500000D02*
X163851558Y-90500000D01*
D30*
X161625000Y-90500000D02*
X163026772Y-90500000D01*
D31*
X163851558Y-90500000D02*
X163851772Y-90500214D01*
%TO.N,GND*%
D30*
X156500000Y-105000000D02*
X156500000Y-106270000D01*
X160550000Y-98300000D02*
X159730141Y-98300000D01*
D31*
X158500000Y-113250000D02*
X158500000Y-110600000D01*
X172500000Y-110000000D02*
X171900000Y-109400000D01*
X169500000Y-111150000D02*
X168750000Y-110400000D01*
D30*
X161294055Y-100350000D02*
X161299441Y-100355386D01*
X163415000Y-97590000D02*
X163500000Y-97675000D01*
X158753144Y-98675000D02*
X158775230Y-98652914D01*
X164925000Y-99500000D02*
X164000000Y-99500000D01*
X166000000Y-101212500D02*
X166000000Y-102000000D01*
D31*
X165050017Y-84500000D02*
X165050017Y-83450017D01*
X161500000Y-113250000D02*
X161500000Y-110500000D01*
D30*
X166000000Y-101212500D02*
X166962500Y-101212500D01*
D32*
X163164185Y-88500000D02*
X162000000Y-88500000D01*
D30*
X161267039Y-98300000D02*
X161274720Y-98307681D01*
X164676772Y-90500000D02*
X165500000Y-90500000D01*
D31*
X169550017Y-81700000D02*
X169550017Y-82799983D01*
D30*
X166000000Y-101212500D02*
X166000000Y-100500000D01*
X166962500Y-101212500D02*
X167000000Y-101250000D01*
D31*
X172500000Y-113250000D02*
X172500000Y-110000000D01*
X169550017Y-82799983D02*
X169550000Y-82800000D01*
X165050017Y-83450017D02*
X165050000Y-83450000D01*
D30*
X160550000Y-100350000D02*
X159747416Y-100350000D01*
D31*
X166550017Y-82799983D02*
X166550000Y-82800000D01*
D30*
X163415000Y-96735000D02*
X163415000Y-97590000D01*
X159747416Y-100350000D02*
X159742031Y-100355385D01*
X162950000Y-93500000D02*
X162000000Y-93500000D01*
D32*
X159200000Y-105050000D02*
X159250000Y-105000000D01*
D31*
X168050017Y-83350017D02*
X168050000Y-83350000D01*
D30*
X162950000Y-93500000D02*
X164000000Y-93500000D01*
D31*
X168050017Y-86217478D02*
X168426499Y-86593960D01*
X165050017Y-84500000D02*
X165050017Y-85449983D01*
D30*
X158000000Y-98675000D02*
X158000000Y-98000000D01*
D31*
X165050017Y-85449983D02*
X164750000Y-85750000D01*
D30*
X160550000Y-98300000D02*
X161267039Y-98300000D01*
D31*
X166550017Y-81700000D02*
X166550017Y-82799983D01*
D30*
X160550000Y-100350000D02*
X161294055Y-100350000D01*
D32*
X156550000Y-105050000D02*
X156500000Y-105000000D01*
D31*
X174500000Y-113250000D02*
X174500000Y-110650000D01*
X169500000Y-113250000D02*
X169500000Y-111150000D01*
D30*
X159730141Y-98300000D02*
X159728126Y-98302015D01*
D32*
X158000000Y-105050000D02*
X159200000Y-105050000D01*
X158000000Y-105050000D02*
X156550000Y-105050000D01*
X163164185Y-88500000D02*
X164500000Y-88500000D01*
D30*
X156500000Y-106270000D02*
X155620000Y-106270000D01*
X160250000Y-81520000D02*
X160250000Y-80750000D01*
D31*
X168050017Y-84500000D02*
X168050017Y-83350017D01*
D30*
X160250000Y-81520000D02*
X161230000Y-81520000D01*
D31*
X168050017Y-84500000D02*
X168050017Y-86217478D01*
X174500000Y-110650000D02*
X174350000Y-110500000D01*
D30*
X155620000Y-106270000D02*
X155600000Y-106250000D01*
X161230000Y-81520000D02*
X161250000Y-81500000D01*
X158000000Y-98675000D02*
X158000000Y-99475000D01*
X158000000Y-98675000D02*
X158753144Y-98675000D01*
%TO.N,+12V*%
X157500000Y-113250000D02*
X157500000Y-111600000D01*
D31*
X162950000Y-95400000D02*
X163700000Y-95400000D01*
D32*
X159800000Y-106950000D02*
X162450000Y-104300000D01*
X162450000Y-104300000D02*
X162450000Y-101000000D01*
D31*
X163700000Y-95400000D02*
X164650000Y-94450000D01*
D30*
X162662500Y-101212500D02*
X162450000Y-101000000D01*
D32*
X157700000Y-107250000D02*
X156500000Y-107250000D01*
D30*
X164500000Y-101212500D02*
X162662500Y-101212500D01*
D32*
X158000000Y-106950000D02*
X157700000Y-107250000D01*
D31*
X164650000Y-94450000D02*
X165225000Y-94450000D01*
D32*
X162450000Y-101000000D02*
X162450000Y-100350000D01*
X158000000Y-106950000D02*
X159800000Y-106950000D01*
X156500000Y-110550000D02*
X156500000Y-110700000D01*
X156500000Y-110550000D02*
X156500000Y-107250000D01*
D30*
X155600000Y-111500000D02*
X155600000Y-113250000D01*
%TO.N,Net-(U1-VBST)*%
X165225000Y-93500000D02*
X165225000Y-92313570D01*
X165225000Y-92313570D02*
X165007202Y-92095772D01*
%TO.N,Net-(C3-Pad2)*%
X163050817Y-92097907D02*
X163985067Y-92097907D01*
X163985067Y-92097907D02*
X163987202Y-92095772D01*
%TO.N,/HOST_PCIE_CLK_P*%
D33*
X165550016Y-83662960D02*
X165550016Y-87835696D01*
X165554150Y-83241174D02*
X165554150Y-83658826D01*
X168783350Y-91069030D02*
X168783350Y-106141650D01*
X165554150Y-83658826D02*
X165550016Y-83662960D01*
X165550016Y-81700000D02*
X165550016Y-83237040D01*
X165550016Y-83237040D02*
X165554150Y-83241174D01*
X168783350Y-106141650D02*
X168525000Y-106400000D01*
X165550016Y-87835696D02*
X168783350Y-91069030D01*
%TO.N,/HOST_PCIE_CLK_N*%
X169279970Y-95569639D02*
X169441657Y-95569639D01*
X169604988Y-93283159D02*
X169604988Y-93364819D01*
X165883316Y-87697636D02*
X169116650Y-90930970D01*
X169441657Y-95977939D02*
X169279970Y-95977939D01*
X169116650Y-93691459D02*
X169116650Y-93773119D01*
X169116650Y-106141650D02*
X169375000Y-106400000D01*
X169279970Y-93936439D02*
X169441668Y-93936439D01*
X169441668Y-93528139D02*
X169279970Y-93528139D01*
X169604977Y-94916359D02*
X169604977Y-94998019D01*
X169116650Y-96222919D02*
X169116650Y-96678078D01*
X169279970Y-93119839D02*
X169441668Y-93119839D01*
X165883316Y-84666701D02*
X165883316Y-87697636D01*
X169116650Y-90930970D02*
X169116650Y-92956519D01*
X169604988Y-94099759D02*
X169604988Y-94181419D01*
X169441657Y-95161339D02*
X169279970Y-95161339D01*
X169441668Y-94344739D02*
X169279970Y-94344739D01*
X169116650Y-96678078D02*
X169116650Y-106141650D01*
X169116650Y-94508059D02*
X169116650Y-94589719D01*
X169604977Y-95732959D02*
X169604977Y-95814619D01*
X166050017Y-84500000D02*
X165883316Y-84666701D01*
X169116650Y-96141259D02*
X169116650Y-96222919D01*
X169279970Y-94753039D02*
X169441657Y-94753039D01*
X169116650Y-95324659D02*
X169116650Y-95406319D01*
X169441657Y-94753039D02*
G75*
G02*
X169605061Y-94916359I43J-163361D01*
G01*
X169604988Y-93364819D02*
G75*
G02*
X169441668Y-93528088I-163288J19D01*
G01*
X169604977Y-94998019D02*
G75*
G02*
X169441657Y-95161277I-163277J19D01*
G01*
X169116650Y-95406319D02*
G75*
G03*
X169279970Y-95569650I163350J19D01*
G01*
X169279970Y-95977939D02*
G75*
G03*
X169116639Y-96141259I30J-163361D01*
G01*
X169116650Y-92956519D02*
G75*
G03*
X169279970Y-93119850I163350J19D01*
G01*
X169116650Y-94589719D02*
G75*
G03*
X169279970Y-94753050I163350J19D01*
G01*
X169279970Y-93528139D02*
G75*
G03*
X169116639Y-93691459I30J-163361D01*
G01*
X169441657Y-95569639D02*
G75*
G02*
X169605061Y-95732959I43J-163361D01*
G01*
X169441668Y-93936439D02*
G75*
G02*
X169605061Y-94099759I32J-163361D01*
G01*
X169604988Y-94181419D02*
G75*
G02*
X169441668Y-94344688I-163288J19D01*
G01*
X169279970Y-94344739D02*
G75*
G03*
X169116639Y-94508059I30J-163361D01*
G01*
X169279970Y-95161339D02*
G75*
G03*
X169116639Y-95324659I30J-163361D01*
G01*
X169441668Y-93119839D02*
G75*
G02*
X169605061Y-93283159I32J-163361D01*
G01*
X169116650Y-93773119D02*
G75*
G03*
X169279970Y-93936450I163350J19D01*
G01*
X169604977Y-95814619D02*
G75*
G02*
X169441657Y-95977877I-163277J19D01*
G01*
%TO.N,/HOST_PCIE_RX_P*%
X170494984Y-96784671D02*
X170494984Y-96866331D01*
X170495005Y-97601271D02*
X170495005Y-97682931D01*
X167216717Y-84666700D02*
X167216717Y-86752397D01*
X167216717Y-86752397D02*
X170983350Y-90519030D01*
X170983350Y-99724431D02*
X170983350Y-101965938D01*
X170658304Y-97029651D02*
X170820030Y-97029651D01*
X170820030Y-96621351D02*
X170658304Y-96621351D01*
X170658304Y-98662851D02*
X170820030Y-98662851D01*
X170820030Y-97437951D02*
X170658325Y-97437951D01*
X170495005Y-99234471D02*
X170495005Y-99316131D01*
X170983350Y-98009571D02*
X170983350Y-98091231D01*
X170983350Y-101965938D02*
X170983350Y-104491650D01*
X170658325Y-99479451D02*
X170820030Y-99479451D01*
X170983350Y-90519030D02*
X170983350Y-96458031D01*
X167050017Y-84500000D02*
X167216717Y-84666700D01*
X170820030Y-98254551D02*
X170658304Y-98254551D01*
X170983350Y-97192971D02*
X170983350Y-97274631D01*
X170983350Y-99642771D02*
X170983350Y-99724431D01*
X170983350Y-104491650D02*
X170725000Y-104750000D01*
X170820030Y-99071151D02*
X170658325Y-99071151D01*
X170983350Y-98826171D02*
X170983350Y-98907831D01*
X170658325Y-97846251D02*
X170820030Y-97846251D01*
X170494984Y-98417871D02*
X170494984Y-98499531D01*
X170983350Y-96458031D02*
G75*
G02*
X170820030Y-96621350I-163350J31D01*
G01*
X170983350Y-98091231D02*
G75*
G02*
X170820030Y-98254550I-163350J31D01*
G01*
X170494984Y-96866331D02*
G75*
G03*
X170658304Y-97029616I163316J31D01*
G01*
X170495005Y-97682931D02*
G75*
G03*
X170658325Y-97846195I163295J31D01*
G01*
X170820030Y-97029651D02*
G75*
G02*
X170983349Y-97192971I-30J-163349D01*
G01*
X170820030Y-99479451D02*
G75*
G02*
X170983349Y-99642771I-30J-163349D01*
G01*
X170494984Y-98499531D02*
G75*
G03*
X170658304Y-98662816I163316J31D01*
G01*
X170820030Y-97846251D02*
G75*
G02*
X170983349Y-98009571I-30J-163349D01*
G01*
X170495005Y-99316131D02*
G75*
G03*
X170658325Y-99479395I163295J31D01*
G01*
X170658304Y-96621351D02*
G75*
G03*
X170494951Y-96784671I-4J-163349D01*
G01*
X170820030Y-98662851D02*
G75*
G02*
X170983349Y-98826171I-30J-163349D01*
G01*
X170658325Y-99071151D02*
G75*
G03*
X170494951Y-99234471I-25J-163349D01*
G01*
X170983350Y-97274631D02*
G75*
G02*
X170820030Y-97437950I-163350J31D01*
G01*
X170983350Y-98907831D02*
G75*
G02*
X170820030Y-99071150I-163350J31D01*
G01*
X170658304Y-98254551D02*
G75*
G03*
X170494951Y-98417871I-4J-163349D01*
G01*
X170658325Y-97437951D02*
G75*
G03*
X170494951Y-97601271I-25J-163349D01*
G01*
%TO.N,/HOST_PCIE_RX_N*%
X171316650Y-90380970D02*
X171316650Y-104491650D01*
X171316650Y-104491650D02*
X171575000Y-104750000D01*
X167550017Y-81700000D02*
X167550017Y-83137007D01*
X167550017Y-83562993D02*
X167550017Y-86614337D01*
X167550017Y-83137007D02*
X167545850Y-83141174D01*
X167550017Y-86614337D02*
X171316650Y-90380970D01*
X167545850Y-83558826D02*
X167550017Y-83562993D01*
X167545850Y-83141174D02*
X167545850Y-83558826D01*
%TO.N,/HOST_PCIE_TX_P*%
X168550017Y-81700000D02*
X168550017Y-83137041D01*
X173233350Y-90619030D02*
X173233350Y-105980970D01*
X168554150Y-83558826D02*
X168550017Y-83562959D01*
X170833350Y-108380970D02*
X170833350Y-109691649D01*
X168554150Y-83141174D02*
X168554150Y-83558826D01*
X170833350Y-109691649D02*
X170500000Y-110024999D01*
X173233350Y-105980970D02*
X170833350Y-108380970D01*
X170500000Y-110024999D02*
X170500000Y-113250000D01*
X168550017Y-83137041D02*
X168554150Y-83141174D01*
X168550017Y-85935697D02*
X173233350Y-90619030D01*
X168550017Y-83562959D02*
X168550017Y-85935697D01*
%TO.N,/HOST_PCIE_TX_N*%
X173891710Y-94623931D02*
X173729970Y-94623931D01*
X171500000Y-110024999D02*
X171500000Y-113250000D01*
X173566650Y-94787251D02*
X173566650Y-94868911D01*
X173566650Y-90480970D02*
X173566650Y-94052311D01*
X173891710Y-95440531D02*
X173729970Y-95440531D01*
X173566650Y-106119030D02*
X171166650Y-108519030D01*
X168883317Y-85797637D02*
X173566650Y-90480970D01*
X173566650Y-96420451D02*
X173566650Y-96502111D01*
X173566650Y-97237051D02*
X173566650Y-97318711D01*
X174055030Y-95195551D02*
X174055030Y-95277211D01*
X173891710Y-96257131D02*
X173729970Y-96257131D01*
X173729970Y-96665431D02*
X173891729Y-96665431D01*
X173566650Y-97318711D02*
X173566650Y-98923419D01*
X173729970Y-95848831D02*
X173891710Y-95848831D01*
X174055030Y-94378951D02*
X174055030Y-94460611D01*
X168883317Y-84666700D02*
X168883317Y-85797637D01*
X171166650Y-109691649D02*
X171500000Y-110024999D01*
X173729970Y-95032231D02*
X173891710Y-95032231D01*
X171166650Y-108519030D02*
X171166650Y-109691649D01*
X173566650Y-98923419D02*
X173566650Y-106119030D01*
X173566650Y-95603851D02*
X173566650Y-95685511D01*
X174055049Y-96828751D02*
X174055049Y-96910411D01*
X173891729Y-97073731D02*
X173729970Y-97073731D01*
X173729970Y-94215631D02*
X173891710Y-94215631D01*
X169050017Y-84500000D02*
X168883317Y-84666700D01*
X174055030Y-96012151D02*
X174055030Y-96093811D01*
X173566650Y-95685511D02*
G75*
G03*
X173729970Y-95848850I163350J11D01*
G01*
X173891729Y-96665431D02*
G75*
G02*
X174054969Y-96828751I-29J-163269D01*
G01*
X173729970Y-94623931D02*
G75*
G03*
X173566731Y-94787251I30J-163269D01*
G01*
X173566650Y-96502111D02*
G75*
G03*
X173729970Y-96665450I163350J11D01*
G01*
X174055030Y-95277211D02*
G75*
G02*
X173891710Y-95440530I-163330J11D01*
G01*
X173729970Y-97073731D02*
G75*
G03*
X173566731Y-97237051I30J-163269D01*
G01*
X173891710Y-95032231D02*
G75*
G02*
X174054969Y-95195551I-10J-163269D01*
G01*
X173566650Y-94052311D02*
G75*
G03*
X173729970Y-94215650I163350J11D01*
G01*
X174055030Y-94460611D02*
G75*
G02*
X173891710Y-94623930I-163330J11D01*
G01*
X174055030Y-96093811D02*
G75*
G02*
X173891710Y-96257130I-163330J11D01*
G01*
X173729970Y-95440531D02*
G75*
G03*
X173566731Y-95603851I30J-163269D01*
G01*
X173566650Y-94868911D02*
G75*
G03*
X173729970Y-95032250I163350J11D01*
G01*
X174055049Y-96910411D02*
G75*
G02*
X173891729Y-97073749I-163349J11D01*
G01*
X173891710Y-94215631D02*
G75*
G02*
X174054969Y-94378951I-10J-163269D01*
G01*
X173891710Y-95848831D02*
G75*
G02*
X174054969Y-96012151I-10J-163269D01*
G01*
X173729970Y-96257131D02*
G75*
G03*
X173566731Y-96420451I30J-163269D01*
G01*
%TO.N,/HOST_PCIE_PERSTN*%
D31*
X171550017Y-81700000D02*
X171550017Y-82899983D01*
X171550017Y-82899983D02*
X171550000Y-82900000D01*
%TO.N,Net-(U1-SW)*%
D30*
X162950000Y-94450000D02*
X160150000Y-94450000D01*
%TO.N,Net-(J1-~{PRSNT1})*%
D31*
X173500000Y-110058640D02*
X172056893Y-108615533D01*
X173500000Y-112700000D02*
X173500000Y-110058640D01*
X162000000Y-107350000D02*
X170800000Y-107350000D01*
%TO.N,+3.3V*%
X162500000Y-113250000D02*
X162500000Y-110500000D01*
%TO.N,Net-(D1-K)*%
D30*
X164500000Y-102787500D02*
X165925000Y-102787500D01*
X165925000Y-102787500D02*
X166000000Y-102862500D01*
%TO.N,Net-(D2-K)*%
X157962500Y-100287500D02*
X158000000Y-100325000D01*
X156505000Y-100287500D02*
X157962500Y-100287500D01*
%TD*%
%TA.AperFunction,Conductor*%
%TO.N,+12V*%
G36*
X162404475Y-95000382D02*
G01*
X162405975Y-95000499D01*
X162405981Y-95000500D01*
X163376000Y-95000499D01*
X163443039Y-95020183D01*
X163488794Y-95072987D01*
X163500000Y-95124499D01*
X163500000Y-96050500D01*
X163480315Y-96117539D01*
X163427511Y-96163294D01*
X163376001Y-96174500D01*
X163244260Y-96174500D01*
X163244260Y-96174501D01*
X163152829Y-96188981D01*
X163152828Y-96188981D01*
X163042607Y-96245142D01*
X163042603Y-96245145D01*
X162955145Y-96332603D01*
X162955142Y-96332608D01*
X162898981Y-96442827D01*
X162898981Y-96442828D01*
X162884500Y-96534264D01*
X162884500Y-96935739D01*
X162898981Y-97027169D01*
X162898982Y-97027173D01*
X162898982Y-97027174D01*
X162898983Y-97027175D01*
X162900984Y-97031103D01*
X162914500Y-97087398D01*
X162914500Y-97655891D01*
X162948608Y-97783187D01*
X162958027Y-97799500D01*
X163014500Y-97897314D01*
X163192686Y-98075500D01*
X163306814Y-98141392D01*
X163408094Y-98168530D01*
X163467754Y-98204894D01*
X163498283Y-98267741D01*
X163500000Y-98288304D01*
X163500000Y-99432241D01*
X163499500Y-99434108D01*
X163499500Y-99565892D01*
X163500000Y-99567758D01*
X163500000Y-101376000D01*
X163480315Y-101443039D01*
X163427511Y-101488794D01*
X163376000Y-101500000D01*
X161874000Y-101500000D01*
X161806961Y-101480315D01*
X161761206Y-101427511D01*
X161750000Y-101376000D01*
X161750000Y-100609221D01*
X161764088Y-100556652D01*
X161762721Y-100556086D01*
X161765828Y-100548579D01*
X161765833Y-100548572D01*
X161799941Y-100421278D01*
X161799941Y-100289494D01*
X161765833Y-100162200D01*
X161765829Y-100162193D01*
X161762722Y-100154690D01*
X161764085Y-100154125D01*
X161750000Y-100101550D01*
X161750000Y-98484021D01*
X161754225Y-98451928D01*
X161775220Y-98373574D01*
X161775220Y-98241789D01*
X161757458Y-98175500D01*
X161754225Y-98163432D01*
X161750000Y-98131340D01*
X161750000Y-95124000D01*
X161769685Y-95056961D01*
X161822489Y-95011206D01*
X161874000Y-95000000D01*
X162394752Y-95000000D01*
X162404475Y-95000382D01*
G37*
%TD.AperFunction*%
%TD*%
%TA.AperFunction,Conductor*%
%TO.N,Net-(U1-SW)*%
G36*
X162268108Y-91855023D02*
G01*
X162283106Y-91859427D01*
X162298096Y-91869057D01*
X162315177Y-91874067D01*
X162341857Y-91897172D01*
X162343044Y-91898541D01*
X162370520Y-91953402D01*
X162372165Y-91960960D01*
X162375002Y-91987331D01*
X162375002Y-92788771D01*
X162369978Y-92823710D01*
X162366723Y-92834794D01*
X162365376Y-92834398D01*
X162361264Y-92842728D01*
X162358907Y-92857603D01*
X162341121Y-92883532D01*
X162340923Y-92883933D01*
X162341325Y-92884247D01*
X162339929Y-92886033D01*
X162339863Y-92886079D01*
X162339401Y-92887017D01*
X162337772Y-92888842D01*
X162337659Y-92888941D01*
X162337477Y-92889173D01*
X162334769Y-92892210D01*
X162334238Y-92892540D01*
X162333536Y-92893280D01*
X162333343Y-92893097D01*
X162308503Y-92908561D01*
X162283187Y-92926711D01*
X162247825Y-92939085D01*
X162227646Y-92944291D01*
X162207311Y-92947747D01*
X162186535Y-92949500D01*
X161927525Y-92949500D01*
X161798994Y-92983939D01*
X161798993Y-92983940D01*
X161791338Y-92985991D01*
X161787510Y-92987017D01*
X161661991Y-93059485D01*
X161661984Y-93059490D01*
X161661968Y-93059505D01*
X161559505Y-93161968D01*
X161559490Y-93161984D01*
X161559485Y-93161992D01*
X161487017Y-93287509D01*
X161486989Y-93287578D01*
X161486748Y-93288511D01*
X161449500Y-93427525D01*
X161449500Y-93572475D01*
X161484814Y-93704266D01*
X161487017Y-93712488D01*
X161558726Y-93836692D01*
X161559359Y-93837883D01*
X161661985Y-93940509D01*
X161662674Y-93941005D01*
X161665178Y-93942353D01*
X161784069Y-94010995D01*
X161787087Y-94012869D01*
X161787514Y-94012983D01*
X161787515Y-94012984D01*
X161927525Y-94050500D01*
X162186535Y-94050500D01*
X162207299Y-94052250D01*
X162227647Y-94055708D01*
X162247811Y-94060909D01*
X162345363Y-94095043D01*
X162348829Y-94096510D01*
X162352799Y-94097645D01*
X162352800Y-94097646D01*
X162352804Y-94097647D01*
X162383226Y-94100500D01*
X162383230Y-94100500D01*
X162383234Y-94100500D01*
X163516763Y-94100500D01*
X163516770Y-94100500D01*
X163534156Y-94098869D01*
X163547199Y-94097646D01*
X163574346Y-94088146D01*
X163580646Y-94086657D01*
X163585428Y-94086913D01*
X163602849Y-94083493D01*
X163616715Y-94082786D01*
X163647995Y-94090263D01*
X163650415Y-94090393D01*
X163651346Y-94091064D01*
X163684670Y-94099030D01*
X163733047Y-94149420D01*
X163736016Y-94155130D01*
X163750000Y-94212335D01*
X163750000Y-94637215D01*
X163730315Y-94704254D01*
X163677511Y-94750009D01*
X163608353Y-94759953D01*
X163569799Y-94747747D01*
X163529114Y-94727060D01*
X163529108Y-94727057D01*
X163529107Y-94727057D01*
X163529105Y-94727056D01*
X163529099Y-94727054D01*
X163462076Y-94707375D01*
X163462071Y-94707373D01*
X163462068Y-94707373D01*
X163462065Y-94707372D01*
X163462058Y-94707371D01*
X163376002Y-94694999D01*
X163376000Y-94694999D01*
X162415886Y-94694999D01*
X162411039Y-94694904D01*
X162406759Y-94694736D01*
X162397417Y-94694552D01*
X162394752Y-94694500D01*
X162394748Y-94694500D01*
X161874010Y-94694500D01*
X161874000Y-94694500D01*
X161873991Y-94694500D01*
X161873990Y-94694501D01*
X161809064Y-94701481D01*
X161809052Y-94701483D01*
X161757546Y-94712688D01*
X161719345Y-94723644D01*
X161719337Y-94723648D01*
X161617789Y-94783038D01*
X161555189Y-94800000D01*
X161450000Y-94800000D01*
X161450000Y-95076877D01*
X161448738Y-95094523D01*
X161444500Y-95123998D01*
X161444500Y-96474118D01*
X161444484Y-96474172D01*
X161444500Y-96474227D01*
X161434624Y-96507748D01*
X161424815Y-96541157D01*
X161424766Y-96541212D01*
X161424756Y-96541249D01*
X161401620Y-96567902D01*
X161401346Y-96568139D01*
X161346597Y-96595518D01*
X161339039Y-96597163D01*
X161312668Y-96600000D01*
X159529000Y-96600000D01*
X159461961Y-96580315D01*
X159416206Y-96527511D01*
X159405000Y-96476000D01*
X159405000Y-92312224D01*
X159405060Y-92308360D01*
X159405450Y-92295840D01*
X159405476Y-92292915D01*
X159405488Y-92291082D01*
X159405489Y-92290941D01*
X159405494Y-92289884D01*
X159405500Y-92287493D01*
X159405500Y-92029500D01*
X159425185Y-91962461D01*
X159477989Y-91916706D01*
X159529500Y-91905500D01*
X160512668Y-91905500D01*
X160566738Y-91902600D01*
X160593109Y-91899763D01*
X160646544Y-91891099D01*
X160654102Y-91889454D01*
X160745852Y-91857069D01*
X160787123Y-91850000D01*
X162233172Y-91850000D01*
X162268108Y-91855023D01*
G37*
%TD.AperFunction*%
%TD*%
%TA.AperFunction,Conductor*%
%TO.N,+5V*%
G36*
X160543106Y-87355023D02*
G01*
X160558104Y-87359427D01*
X160573094Y-87369057D01*
X160590175Y-87374067D01*
X160616855Y-87397172D01*
X160618042Y-87398541D01*
X160645518Y-87453402D01*
X160647163Y-87460960D01*
X160650000Y-87487331D01*
X160650000Y-91258170D01*
X160644975Y-91293114D01*
X160640570Y-91308112D01*
X160630939Y-91323101D01*
X160625932Y-91340175D01*
X160602827Y-91366855D01*
X160601458Y-91368042D01*
X160546597Y-91395518D01*
X160539039Y-91397163D01*
X160512668Y-91400000D01*
X158900000Y-91400000D01*
X158900000Y-92287493D01*
X158899995Y-92288550D01*
X158899970Y-92291366D01*
X158899572Y-92298798D01*
X158899678Y-92298804D01*
X158899500Y-92302128D01*
X158899500Y-92346592D01*
X158899500Y-96553509D01*
X158897396Y-96560671D01*
X158899822Y-96605841D01*
X158900000Y-96612489D01*
X158900000Y-97108170D01*
X158899999Y-97108176D01*
X158900000Y-97108179D01*
X158894975Y-97143114D01*
X158890570Y-97158112D01*
X158852827Y-97216855D01*
X158852792Y-97216885D01*
X158852791Y-97216887D01*
X158852789Y-97216887D01*
X158851458Y-97218042D01*
X158796597Y-97245518D01*
X158789039Y-97247163D01*
X158762668Y-97250000D01*
X158076432Y-97250000D01*
X158073918Y-97249500D01*
X157926082Y-97249500D01*
X157923568Y-97250000D01*
X155691830Y-97250000D01*
X155656889Y-97244975D01*
X155641890Y-97240570D01*
X155583144Y-97202827D01*
X155581957Y-97201458D01*
X155554477Y-97146583D01*
X155552832Y-97139021D01*
X155550000Y-97112668D01*
X155550000Y-87879500D01*
X155569685Y-87812461D01*
X155622489Y-87766706D01*
X155674000Y-87755500D01*
X159075990Y-87755500D01*
X159076000Y-87755500D01*
X159183456Y-87743947D01*
X159234967Y-87732741D01*
X159269197Y-87721347D01*
X159337497Y-87698616D01*
X159337501Y-87698613D01*
X159337504Y-87698613D01*
X159458543Y-87620825D01*
X159511347Y-87575070D01*
X159605567Y-87466336D01*
X159625592Y-87422487D01*
X159671346Y-87369685D01*
X159738386Y-87350000D01*
X160508170Y-87350000D01*
X160543106Y-87355023D01*
G37*
%TD.AperFunction*%
%TD*%
%TA.AperFunction,Conductor*%
%TO.N,Net-(C10-Pad1)*%
G36*
X162502558Y-82169685D02*
G01*
X162548313Y-82222489D01*
X162559518Y-82273999D01*
X162559519Y-82458912D01*
X162559520Y-82458915D01*
X162564769Y-82485312D01*
X162564770Y-82485314D01*
X162584770Y-82515247D01*
X162614706Y-82535249D01*
X162623425Y-82536983D01*
X162641105Y-82540500D01*
X163458930Y-82540499D01*
X163485329Y-82535249D01*
X163515265Y-82515247D01*
X163535267Y-82485311D01*
X163540518Y-82458913D01*
X163540518Y-82274000D01*
X163560203Y-82206961D01*
X163613007Y-82161206D01*
X163664518Y-82150000D01*
X164726000Y-82150000D01*
X164793039Y-82169685D01*
X164838794Y-82222489D01*
X164850000Y-82274000D01*
X164850000Y-82926000D01*
X164830315Y-82993039D01*
X164777511Y-83038794D01*
X164726000Y-83050000D01*
X164350000Y-83050000D01*
X164350000Y-84076000D01*
X164330315Y-84143039D01*
X164277511Y-84188794D01*
X164226000Y-84200000D01*
X163664517Y-84200000D01*
X163597478Y-84180315D01*
X163551723Y-84127511D01*
X163540517Y-84076000D01*
X163540517Y-83741091D01*
X163540517Y-83741088D01*
X163535267Y-83714689D01*
X163535266Y-83714687D01*
X163535265Y-83714685D01*
X163515265Y-83684752D01*
X163485329Y-83664750D01*
X163458933Y-83659500D01*
X162641109Y-83659500D01*
X162614705Y-83664751D01*
X162614703Y-83664752D01*
X162584770Y-83684752D01*
X162564768Y-83714688D01*
X162559518Y-83741084D01*
X162559518Y-84076000D01*
X162539833Y-84143039D01*
X162487029Y-84188794D01*
X162435518Y-84200000D01*
X159200000Y-84200000D01*
X159200000Y-87126000D01*
X159180315Y-87193039D01*
X159127511Y-87238794D01*
X159076000Y-87250000D01*
X155524000Y-87250000D01*
X155456961Y-87230315D01*
X155411206Y-87177511D01*
X155400000Y-87126000D01*
X155400000Y-82274000D01*
X155419685Y-82206961D01*
X155472489Y-82161206D01*
X155524000Y-82150000D01*
X162435519Y-82150000D01*
X162502558Y-82169685D01*
G37*
%TD.AperFunction*%
%TD*%
%TA.AperFunction,Conductor*%
%TO.N,+12V*%
G36*
X157893039Y-110269685D02*
G01*
X157938794Y-110322489D01*
X157950000Y-110374000D01*
X157950000Y-110525658D01*
X157949500Y-110527525D01*
X157949500Y-110672475D01*
X157950000Y-110674341D01*
X157950000Y-110910817D01*
X157930315Y-110977856D01*
X157929103Y-110979706D01*
X157914033Y-111002259D01*
X157899500Y-111075323D01*
X157899500Y-113576000D01*
X157879815Y-113643039D01*
X157827011Y-113688794D01*
X157775500Y-113700000D01*
X155474500Y-113700000D01*
X155407461Y-113680315D01*
X155361706Y-113627511D01*
X155350500Y-113576000D01*
X155350500Y-110374000D01*
X155370185Y-110306961D01*
X155422989Y-110261206D01*
X155474500Y-110250000D01*
X157826000Y-110250000D01*
X157893039Y-110269685D01*
G37*
%TD.AperFunction*%
%TD*%
%TA.AperFunction,Conductor*%
%TO.N,+3.3V*%
G36*
X164943039Y-110269685D02*
G01*
X164988794Y-110322489D01*
X165000000Y-110374000D01*
X165000000Y-110725500D01*
X164980315Y-110792539D01*
X164927511Y-110838294D01*
X164876000Y-110849500D01*
X164125324Y-110849500D01*
X164052259Y-110864033D01*
X164047452Y-110866025D01*
X163977983Y-110873494D01*
X163952548Y-110866025D01*
X163947740Y-110864033D01*
X163874676Y-110849500D01*
X163874674Y-110849500D01*
X163125326Y-110849500D01*
X163125323Y-110849500D01*
X163052264Y-110864032D01*
X163052260Y-110864033D01*
X162969399Y-110919399D01*
X162914033Y-111002260D01*
X162914032Y-111002264D01*
X162899500Y-111075321D01*
X162899500Y-113576000D01*
X162879815Y-113643039D01*
X162827011Y-113688794D01*
X162775500Y-113700000D01*
X162224500Y-113700000D01*
X162157461Y-113680315D01*
X162111706Y-113627511D01*
X162100500Y-113576000D01*
X162100500Y-111075323D01*
X162100499Y-111075321D01*
X162085967Y-111002264D01*
X162085966Y-111002263D01*
X162085966Y-111002260D01*
X162030601Y-110919399D01*
X162023816Y-110909244D01*
X162026626Y-110907365D01*
X162021615Y-110898188D01*
X162005023Y-110872370D01*
X162004131Y-110866169D01*
X162002834Y-110863793D01*
X162000000Y-110837435D01*
X162000000Y-110768199D01*
X162012621Y-110721131D01*
X162009874Y-110719993D01*
X162012979Y-110712492D01*
X162012984Y-110712485D01*
X162050500Y-110572475D01*
X162050500Y-110427525D01*
X162044757Y-110406092D01*
X162046420Y-110336243D01*
X162085583Y-110278381D01*
X162149811Y-110250877D01*
X162164532Y-110250000D01*
X164876000Y-110250000D01*
X164943039Y-110269685D01*
G37*
%TD.AperFunction*%
%TD*%
M02*
