%TF.GenerationSoftware,KiCad,Pcbnew,10.0.4*%
%TF.CreationDate,2026-07-18T00:46:47-04:00*%
%TF.ProjectId,ROV_PCIe_Adapter,524f565f-5043-4496-955f-416461707465,rev?*%
%TF.SameCoordinates,Original*%
%TF.FileFunction,Soldermask,Top*%
%TF.FilePolarity,Negative*%
%FSLAX46Y46*%
G04 Gerber Fmt 4.6, Leading zero omitted, Abs format (unit mm)*
G04 Created by KiCad (PCBNEW 10.0.4) date 2026-07-18 00:46:47*
%MOMM*%
%LPD*%
G01*
G04 APERTURE LIST*
G04 Aperture macros list*
%AMRoundRect*
0 Rectangle with rounded corners*
0 $1 Rounding radius*
0 $2 $3 $4 $5 $6 $7 $8 $9 X,Y pos of 4 corners*
0 Add a 4 corners polygon primitive as box body*
4,1,4,$2,$3,$4,$5,$6,$7,$8,$9,$2,$3,0*
0 Add four circle primitives for the rounded corners*
1,1,$1+$1,$2,$3*
1,1,$1+$1,$4,$5*
1,1,$1+$1,$6,$7*
1,1,$1+$1,$8,$9*
0 Add four rect primitives between the rounded corners*
20,1,$1+$1,$2,$3,$4,$5,0*
20,1,$1+$1,$4,$5,$6,$7,0*
20,1,$1+$1,$6,$7,$8,$9,0*
20,1,$1+$1,$8,$9,$2,$3,0*%
G04 Aperture macros list end*
%ADD10RoundRect,0.200000X0.275000X-0.200000X0.275000X0.200000X-0.275000X0.200000X-0.275000X-0.200000X0*%
%ADD11RoundRect,0.200000X-0.200000X-0.275000X0.200000X-0.275000X0.200000X0.275000X-0.200000X0.275000X0*%
%ADD12RoundRect,0.218750X0.256250X-0.218750X0.256250X0.218750X-0.256250X0.218750X-0.256250X-0.218750X0*%
%ADD13RoundRect,0.200000X0.200000X0.275000X-0.200000X0.275000X-0.200000X-0.275000X0.200000X-0.275000X0*%
%ADD14RoundRect,0.140000X0.170000X-0.140000X0.170000X0.140000X-0.170000X0.140000X-0.170000X-0.140000X0*%
%ADD15RoundRect,0.135000X0.135000X0.185000X-0.135000X0.185000X-0.135000X-0.185000X0.135000X-0.185000X0*%
%ADD16RoundRect,0.250000X0.650000X-0.325000X0.650000X0.325000X-0.650000X0.325000X-0.650000X-0.325000X0*%
%ADD17RoundRect,0.140000X-0.140000X-0.170000X0.140000X-0.170000X0.140000X0.170000X-0.140000X0.170000X0*%
%ADD18R,0.600000X1.500000*%
%ADD19R,0.800000X1.500000*%
%ADD20RoundRect,0.150000X-0.512500X-0.150000X0.512500X-0.150000X0.512500X0.150000X-0.512500X0.150000X0*%
%ADD21RoundRect,0.250000X-0.325000X-0.650000X0.325000X-0.650000X0.325000X0.650000X-0.325000X0.650000X0*%
%ADD22RoundRect,0.250000X0.475000X-0.250000X0.475000X0.250000X-0.475000X0.250000X-0.475000X-0.250000X0*%
%ADD23RoundRect,0.250000X-1.450000X0.312500X-1.450000X-0.312500X1.450000X-0.312500X1.450000X0.312500X0*%
%ADD24RoundRect,0.250000X0.250000X0.475000X-0.250000X0.475000X-0.250000X-0.475000X0.250000X-0.475000X0*%
%ADD25R,1.500000X4.200000*%
%ADD26R,0.700000X4.300000*%
%ADD27R,0.700000X3.200000*%
G04 APERTURE END LIST*
D10*
%TO.C,R6*%
X166000000Y-102862500D03*
X166000000Y-101212500D03*
%TD*%
D11*
%TO.C,R3*%
X164925000Y-98000000D03*
X166575000Y-98000000D03*
%TD*%
D12*
%TO.C,D1*%
X164500000Y-102787500D03*
X164500000Y-101212500D03*
%TD*%
D11*
%TO.C,R2*%
X163026772Y-90500000D03*
X164676772Y-90500000D03*
%TD*%
D13*
%TO.C,R4*%
X166575000Y-99500000D03*
X164925000Y-99500000D03*
%TD*%
D14*
%TO.C,C8*%
X156500000Y-107230000D03*
X156500000Y-106270000D03*
%TD*%
D15*
%TO.C,R5*%
X165007202Y-92095772D03*
X163987202Y-92095772D03*
%TD*%
D12*
%TO.C,D2*%
X156505000Y-100287500D03*
X156505000Y-98712500D03*
%TD*%
D16*
%TO.C,C9*%
X158000000Y-84225000D03*
X158000000Y-81275000D03*
%TD*%
D10*
%TO.C,R7*%
X158000000Y-100325000D03*
X158000000Y-98675000D03*
%TD*%
D14*
%TO.C,C10*%
X160250000Y-82480000D03*
X160250000Y-81520000D03*
%TD*%
D17*
%TO.C,C6*%
X162455000Y-96735000D03*
X163415000Y-96735000D03*
%TD*%
D18*
%TO.C,J2*%
X164050017Y-84500000D03*
X164550016Y-81700000D03*
X165050017Y-84500000D03*
X165550016Y-81700000D03*
X166050017Y-84500000D03*
X166550017Y-81700000D03*
X167050017Y-84500000D03*
X167550017Y-81700000D03*
X168050017Y-84500000D03*
X168550017Y-81700000D03*
X169050017Y-84500000D03*
X169550017Y-81700000D03*
X170050017Y-84500000D03*
X170550017Y-81700000D03*
X171050017Y-84500000D03*
X171550017Y-81700000D03*
D19*
X163050018Y-84500000D03*
X172550000Y-84500000D03*
X163050018Y-81700000D03*
X172550000Y-81700000D03*
%TD*%
D17*
%TO.C,C5*%
X165020000Y-96678599D03*
X165980000Y-96678599D03*
%TD*%
%TO.C,C3*%
X162090817Y-92097907D03*
X163050817Y-92097907D03*
%TD*%
D20*
%TO.C,U1*%
X162950000Y-93500000D03*
X162950000Y-94450000D03*
X162950000Y-95400000D03*
X165225000Y-95400000D03*
X165225000Y-94450000D03*
X165225000Y-93500000D03*
%TD*%
D21*
%TO.C,C4*%
X160214185Y-88500000D03*
X163164185Y-88500000D03*
%TD*%
D22*
%TO.C,C7*%
X158000000Y-106950000D03*
X158000000Y-105050000D03*
%TD*%
D23*
%TO.C,F1*%
X157250000Y-86512500D03*
X157250000Y-90787500D03*
%TD*%
D24*
%TO.C,C1*%
X162450000Y-98300000D03*
X160550000Y-98300000D03*
%TD*%
D25*
%TO.C,L1*%
X160150000Y-94450000D03*
X156550000Y-94450000D03*
%TD*%
D24*
%TO.C,C2*%
X162450000Y-100350000D03*
X160550000Y-100350000D03*
%TD*%
D26*
%TO.C,J1*%
X155500000Y-113250000D03*
X156500000Y-113250000D03*
X157500000Y-113250000D03*
X158500000Y-113250000D03*
X159500000Y-113250000D03*
X160500000Y-113250000D03*
X161500000Y-113250000D03*
X162500000Y-113250000D03*
X163500000Y-113250000D03*
X164500000Y-113250000D03*
X165500000Y-113250000D03*
X168500000Y-113250000D03*
X169500000Y-113250000D03*
X170500000Y-113250000D03*
X171500000Y-113250000D03*
X172500000Y-113250000D03*
D27*
X173500000Y-112700000D03*
D26*
X174500000Y-113250000D03*
%TD*%
D11*
%TO.C,R1*%
X159975000Y-90500000D03*
X161625000Y-90500000D03*
%TD*%
M02*
