%TF.GenerationSoftware,KiCad,Pcbnew,10.0.4*%
%TF.CreationDate,2026-07-18T00:46:47-04:00*%
%TF.ProjectId,ROV_PCIe_Adapter,524f565f-5043-4496-955f-416461707465,rev?*%
%TF.SameCoordinates,Original*%
%TF.FileFunction,Legend,Bot*%
%TF.FilePolarity,Positive*%
%FSLAX46Y46*%
G04 Gerber Fmt 4.6, Leading zero omitted, Abs format (unit mm)*
G04 Created by KiCad (PCBNEW 10.0.4) date 2026-07-18 00:46:47*
%MOMM*%
%LPD*%
G01*
G04 APERTURE LIST*
%ADD10C,0.100000*%
%ADD11C,0.150000*%
%ADD12C,0.200000*%
%ADD13C,0.000000*%
G04 APERTURE END LIST*
D10*
X168500000Y-99000000D02*
X173500000Y-99000000D01*
X173500000Y-104000000D01*
X168500000Y-104000000D01*
X168500000Y-99000000D01*
G36*
X168500000Y-99000000D02*
G01*
X173500000Y-99000000D01*
X173500000Y-104000000D01*
X168500000Y-104000000D01*
X168500000Y-99000000D01*
G37*
D11*
X166489819Y-101870833D02*
X166013628Y-101537500D01*
X166489819Y-101299405D02*
X165489819Y-101299405D01*
X165489819Y-101299405D02*
X165489819Y-101680357D01*
X165489819Y-101680357D02*
X165537438Y-101775595D01*
X165537438Y-101775595D02*
X165585057Y-101823214D01*
X165585057Y-101823214D02*
X165680295Y-101870833D01*
X165680295Y-101870833D02*
X165823152Y-101870833D01*
X165823152Y-101870833D02*
X165918390Y-101823214D01*
X165918390Y-101823214D02*
X165966009Y-101775595D01*
X165966009Y-101775595D02*
X166013628Y-101680357D01*
X166013628Y-101680357D02*
X166013628Y-101299405D01*
X165489819Y-102727976D02*
X165489819Y-102537500D01*
X165489819Y-102537500D02*
X165537438Y-102442262D01*
X165537438Y-102442262D02*
X165585057Y-102394643D01*
X165585057Y-102394643D02*
X165727914Y-102299405D01*
X165727914Y-102299405D02*
X165918390Y-102251786D01*
X165918390Y-102251786D02*
X166299342Y-102251786D01*
X166299342Y-102251786D02*
X166394580Y-102299405D01*
X166394580Y-102299405D02*
X166442200Y-102347024D01*
X166442200Y-102347024D02*
X166489819Y-102442262D01*
X166489819Y-102442262D02*
X166489819Y-102632738D01*
X166489819Y-102632738D02*
X166442200Y-102727976D01*
X166442200Y-102727976D02*
X166394580Y-102775595D01*
X166394580Y-102775595D02*
X166299342Y-102823214D01*
X166299342Y-102823214D02*
X166061247Y-102823214D01*
X166061247Y-102823214D02*
X165966009Y-102775595D01*
X165966009Y-102775595D02*
X165918390Y-102727976D01*
X165918390Y-102727976D02*
X165870771Y-102632738D01*
X165870771Y-102632738D02*
X165870771Y-102442262D01*
X165870771Y-102442262D02*
X165918390Y-102347024D01*
X165918390Y-102347024D02*
X165966009Y-102299405D01*
X165966009Y-102299405D02*
X166061247Y-102251786D01*
D12*
X165733332Y-98409695D02*
X165999999Y-98028742D01*
X166190475Y-98409695D02*
X166190475Y-97609695D01*
X166190475Y-97609695D02*
X165885713Y-97609695D01*
X165885713Y-97609695D02*
X165809523Y-97647790D01*
X165809523Y-97647790D02*
X165771428Y-97685885D01*
X165771428Y-97685885D02*
X165733332Y-97762076D01*
X165733332Y-97762076D02*
X165733332Y-97876361D01*
X165733332Y-97876361D02*
X165771428Y-97952552D01*
X165771428Y-97952552D02*
X165809523Y-97990647D01*
X165809523Y-97990647D02*
X165885713Y-98028742D01*
X165885713Y-98028742D02*
X166190475Y-98028742D01*
X165466666Y-97609695D02*
X164971428Y-97609695D01*
X164971428Y-97609695D02*
X165238094Y-97914457D01*
X165238094Y-97914457D02*
X165123809Y-97914457D01*
X165123809Y-97914457D02*
X165047618Y-97952552D01*
X165047618Y-97952552D02*
X165009523Y-97990647D01*
X165009523Y-97990647D02*
X164971428Y-98066838D01*
X164971428Y-98066838D02*
X164971428Y-98257314D01*
X164971428Y-98257314D02*
X165009523Y-98333504D01*
X165009523Y-98333504D02*
X165047618Y-98371600D01*
X165047618Y-98371600D02*
X165123809Y-98409695D01*
X165123809Y-98409695D02*
X165352380Y-98409695D01*
X165352380Y-98409695D02*
X165428571Y-98371600D01*
X165428571Y-98371600D02*
X165466666Y-98333504D01*
D11*
X164909819Y-101261905D02*
X163909819Y-101261905D01*
X163909819Y-101261905D02*
X163909819Y-101500000D01*
X163909819Y-101500000D02*
X163957438Y-101642857D01*
X163957438Y-101642857D02*
X164052676Y-101738095D01*
X164052676Y-101738095D02*
X164147914Y-101785714D01*
X164147914Y-101785714D02*
X164338390Y-101833333D01*
X164338390Y-101833333D02*
X164481247Y-101833333D01*
X164481247Y-101833333D02*
X164671723Y-101785714D01*
X164671723Y-101785714D02*
X164766961Y-101738095D01*
X164766961Y-101738095D02*
X164862200Y-101642857D01*
X164862200Y-101642857D02*
X164909819Y-101500000D01*
X164909819Y-101500000D02*
X164909819Y-101261905D01*
X164909819Y-102785714D02*
X164909819Y-102214286D01*
X164909819Y-102500000D02*
X163909819Y-102500000D01*
X163909819Y-102500000D02*
X164052676Y-102404762D01*
X164052676Y-102404762D02*
X164147914Y-102309524D01*
X164147914Y-102309524D02*
X164195533Y-102214286D01*
D12*
X163935104Y-90859695D02*
X164201771Y-90478742D01*
X164392247Y-90859695D02*
X164392247Y-90059695D01*
X164392247Y-90059695D02*
X164087485Y-90059695D01*
X164087485Y-90059695D02*
X164011295Y-90097790D01*
X164011295Y-90097790D02*
X163973200Y-90135885D01*
X163973200Y-90135885D02*
X163935104Y-90212076D01*
X163935104Y-90212076D02*
X163935104Y-90326361D01*
X163935104Y-90326361D02*
X163973200Y-90402552D01*
X163973200Y-90402552D02*
X164011295Y-90440647D01*
X164011295Y-90440647D02*
X164087485Y-90478742D01*
X164087485Y-90478742D02*
X164392247Y-90478742D01*
X163630343Y-90135885D02*
X163592247Y-90097790D01*
X163592247Y-90097790D02*
X163516057Y-90059695D01*
X163516057Y-90059695D02*
X163325581Y-90059695D01*
X163325581Y-90059695D02*
X163249390Y-90097790D01*
X163249390Y-90097790D02*
X163211295Y-90135885D01*
X163211295Y-90135885D02*
X163173200Y-90212076D01*
X163173200Y-90212076D02*
X163173200Y-90288266D01*
X163173200Y-90288266D02*
X163211295Y-90402552D01*
X163211295Y-90402552D02*
X163668438Y-90859695D01*
X163668438Y-90859695D02*
X163173200Y-90859695D01*
X165833332Y-99759695D02*
X166099999Y-99378742D01*
X166290475Y-99759695D02*
X166290475Y-98959695D01*
X166290475Y-98959695D02*
X165985713Y-98959695D01*
X165985713Y-98959695D02*
X165909523Y-98997790D01*
X165909523Y-98997790D02*
X165871428Y-99035885D01*
X165871428Y-99035885D02*
X165833332Y-99112076D01*
X165833332Y-99112076D02*
X165833332Y-99226361D01*
X165833332Y-99226361D02*
X165871428Y-99302552D01*
X165871428Y-99302552D02*
X165909523Y-99340647D01*
X165909523Y-99340647D02*
X165985713Y-99378742D01*
X165985713Y-99378742D02*
X166290475Y-99378742D01*
X165147618Y-99226361D02*
X165147618Y-99759695D01*
X165338094Y-98921600D02*
X165528571Y-99493028D01*
X165528571Y-99493028D02*
X165033332Y-99493028D01*
X156783504Y-106616667D02*
X156821600Y-106578571D01*
X156821600Y-106578571D02*
X156859695Y-106464286D01*
X156859695Y-106464286D02*
X156859695Y-106388095D01*
X156859695Y-106388095D02*
X156821600Y-106273809D01*
X156821600Y-106273809D02*
X156745409Y-106197619D01*
X156745409Y-106197619D02*
X156669219Y-106159524D01*
X156669219Y-106159524D02*
X156516838Y-106121428D01*
X156516838Y-106121428D02*
X156402552Y-106121428D01*
X156402552Y-106121428D02*
X156250171Y-106159524D01*
X156250171Y-106159524D02*
X156173980Y-106197619D01*
X156173980Y-106197619D02*
X156097790Y-106273809D01*
X156097790Y-106273809D02*
X156059695Y-106388095D01*
X156059695Y-106388095D02*
X156059695Y-106464286D01*
X156059695Y-106464286D02*
X156097790Y-106578571D01*
X156097790Y-106578571D02*
X156135885Y-106616667D01*
X156402552Y-107073809D02*
X156364457Y-106997619D01*
X156364457Y-106997619D02*
X156326361Y-106959524D01*
X156326361Y-106959524D02*
X156250171Y-106921428D01*
X156250171Y-106921428D02*
X156212076Y-106921428D01*
X156212076Y-106921428D02*
X156135885Y-106959524D01*
X156135885Y-106959524D02*
X156097790Y-106997619D01*
X156097790Y-106997619D02*
X156059695Y-107073809D01*
X156059695Y-107073809D02*
X156059695Y-107226190D01*
X156059695Y-107226190D02*
X156097790Y-107302381D01*
X156097790Y-107302381D02*
X156135885Y-107340476D01*
X156135885Y-107340476D02*
X156212076Y-107378571D01*
X156212076Y-107378571D02*
X156250171Y-107378571D01*
X156250171Y-107378571D02*
X156326361Y-107340476D01*
X156326361Y-107340476D02*
X156364457Y-107302381D01*
X156364457Y-107302381D02*
X156402552Y-107226190D01*
X156402552Y-107226190D02*
X156402552Y-107073809D01*
X156402552Y-107073809D02*
X156440647Y-106997619D01*
X156440647Y-106997619D02*
X156478742Y-106959524D01*
X156478742Y-106959524D02*
X156554933Y-106921428D01*
X156554933Y-106921428D02*
X156707314Y-106921428D01*
X156707314Y-106921428D02*
X156783504Y-106959524D01*
X156783504Y-106959524D02*
X156821600Y-106997619D01*
X156821600Y-106997619D02*
X156859695Y-107073809D01*
X156859695Y-107073809D02*
X156859695Y-107226190D01*
X156859695Y-107226190D02*
X156821600Y-107302381D01*
X156821600Y-107302381D02*
X156783504Y-107340476D01*
X156783504Y-107340476D02*
X156707314Y-107378571D01*
X156707314Y-107378571D02*
X156554933Y-107378571D01*
X156554933Y-107378571D02*
X156478742Y-107340476D01*
X156478742Y-107340476D02*
X156440647Y-107302381D01*
X156440647Y-107302381D02*
X156402552Y-107226190D01*
D11*
X164666666Y-92454819D02*
X164999999Y-91978628D01*
X165238094Y-92454819D02*
X165238094Y-91454819D01*
X165238094Y-91454819D02*
X164857142Y-91454819D01*
X164857142Y-91454819D02*
X164761904Y-91502438D01*
X164761904Y-91502438D02*
X164714285Y-91550057D01*
X164714285Y-91550057D02*
X164666666Y-91645295D01*
X164666666Y-91645295D02*
X164666666Y-91788152D01*
X164666666Y-91788152D02*
X164714285Y-91883390D01*
X164714285Y-91883390D02*
X164761904Y-91931009D01*
X164761904Y-91931009D02*
X164857142Y-91978628D01*
X164857142Y-91978628D02*
X165238094Y-91978628D01*
X163761904Y-91454819D02*
X164238094Y-91454819D01*
X164238094Y-91454819D02*
X164285713Y-91931009D01*
X164285713Y-91931009D02*
X164238094Y-91883390D01*
X164238094Y-91883390D02*
X164142856Y-91835771D01*
X164142856Y-91835771D02*
X163904761Y-91835771D01*
X163904761Y-91835771D02*
X163809523Y-91883390D01*
X163809523Y-91883390D02*
X163761904Y-91931009D01*
X163761904Y-91931009D02*
X163714285Y-92026247D01*
X163714285Y-92026247D02*
X163714285Y-92264342D01*
X163714285Y-92264342D02*
X163761904Y-92359580D01*
X163761904Y-92359580D02*
X163809523Y-92407200D01*
X163809523Y-92407200D02*
X163904761Y-92454819D01*
X163904761Y-92454819D02*
X164142856Y-92454819D01*
X164142856Y-92454819D02*
X164238094Y-92407200D01*
X164238094Y-92407200D02*
X164285713Y-92359580D01*
X156959819Y-98806905D02*
X155959819Y-98806905D01*
X155959819Y-98806905D02*
X155959819Y-99045000D01*
X155959819Y-99045000D02*
X156007438Y-99187857D01*
X156007438Y-99187857D02*
X156102676Y-99283095D01*
X156102676Y-99283095D02*
X156197914Y-99330714D01*
X156197914Y-99330714D02*
X156388390Y-99378333D01*
X156388390Y-99378333D02*
X156531247Y-99378333D01*
X156531247Y-99378333D02*
X156721723Y-99330714D01*
X156721723Y-99330714D02*
X156816961Y-99283095D01*
X156816961Y-99283095D02*
X156912200Y-99187857D01*
X156912200Y-99187857D02*
X156959819Y-99045000D01*
X156959819Y-99045000D02*
X156959819Y-98806905D01*
X156055057Y-99759286D02*
X156007438Y-99806905D01*
X156007438Y-99806905D02*
X155959819Y-99902143D01*
X155959819Y-99902143D02*
X155959819Y-100140238D01*
X155959819Y-100140238D02*
X156007438Y-100235476D01*
X156007438Y-100235476D02*
X156055057Y-100283095D01*
X156055057Y-100283095D02*
X156150295Y-100330714D01*
X156150295Y-100330714D02*
X156245533Y-100330714D01*
X156245533Y-100330714D02*
X156388390Y-100283095D01*
X156388390Y-100283095D02*
X156959819Y-99711667D01*
X156959819Y-99711667D02*
X156959819Y-100330714D01*
X158359580Y-82583333D02*
X158407200Y-82535714D01*
X158407200Y-82535714D02*
X158454819Y-82392857D01*
X158454819Y-82392857D02*
X158454819Y-82297619D01*
X158454819Y-82297619D02*
X158407200Y-82154762D01*
X158407200Y-82154762D02*
X158311961Y-82059524D01*
X158311961Y-82059524D02*
X158216723Y-82011905D01*
X158216723Y-82011905D02*
X158026247Y-81964286D01*
X158026247Y-81964286D02*
X157883390Y-81964286D01*
X157883390Y-81964286D02*
X157692914Y-82011905D01*
X157692914Y-82011905D02*
X157597676Y-82059524D01*
X157597676Y-82059524D02*
X157502438Y-82154762D01*
X157502438Y-82154762D02*
X157454819Y-82297619D01*
X157454819Y-82297619D02*
X157454819Y-82392857D01*
X157454819Y-82392857D02*
X157502438Y-82535714D01*
X157502438Y-82535714D02*
X157550057Y-82583333D01*
X158454819Y-83059524D02*
X158454819Y-83250000D01*
X158454819Y-83250000D02*
X158407200Y-83345238D01*
X158407200Y-83345238D02*
X158359580Y-83392857D01*
X158359580Y-83392857D02*
X158216723Y-83488095D01*
X158216723Y-83488095D02*
X158026247Y-83535714D01*
X158026247Y-83535714D02*
X157645295Y-83535714D01*
X157645295Y-83535714D02*
X157550057Y-83488095D01*
X157550057Y-83488095D02*
X157502438Y-83440476D01*
X157502438Y-83440476D02*
X157454819Y-83345238D01*
X157454819Y-83345238D02*
X157454819Y-83154762D01*
X157454819Y-83154762D02*
X157502438Y-83059524D01*
X157502438Y-83059524D02*
X157550057Y-83011905D01*
X157550057Y-83011905D02*
X157645295Y-82964286D01*
X157645295Y-82964286D02*
X157883390Y-82964286D01*
X157883390Y-82964286D02*
X157978628Y-83011905D01*
X157978628Y-83011905D02*
X158026247Y-83059524D01*
X158026247Y-83059524D02*
X158073866Y-83154762D01*
X158073866Y-83154762D02*
X158073866Y-83345238D01*
X158073866Y-83345238D02*
X158026247Y-83440476D01*
X158026247Y-83440476D02*
X157978628Y-83488095D01*
X157978628Y-83488095D02*
X157883390Y-83535714D01*
X158454819Y-99378333D02*
X157978628Y-99045000D01*
X158454819Y-98806905D02*
X157454819Y-98806905D01*
X157454819Y-98806905D02*
X157454819Y-99187857D01*
X157454819Y-99187857D02*
X157502438Y-99283095D01*
X157502438Y-99283095D02*
X157550057Y-99330714D01*
X157550057Y-99330714D02*
X157645295Y-99378333D01*
X157645295Y-99378333D02*
X157788152Y-99378333D01*
X157788152Y-99378333D02*
X157883390Y-99330714D01*
X157883390Y-99330714D02*
X157931009Y-99283095D01*
X157931009Y-99283095D02*
X157978628Y-99187857D01*
X157978628Y-99187857D02*
X157978628Y-98806905D01*
X157454819Y-99711667D02*
X157454819Y-100378333D01*
X157454819Y-100378333D02*
X158454819Y-99949762D01*
D12*
X160533504Y-81485714D02*
X160571600Y-81447618D01*
X160571600Y-81447618D02*
X160609695Y-81333333D01*
X160609695Y-81333333D02*
X160609695Y-81257142D01*
X160609695Y-81257142D02*
X160571600Y-81142856D01*
X160571600Y-81142856D02*
X160495409Y-81066666D01*
X160495409Y-81066666D02*
X160419219Y-81028571D01*
X160419219Y-81028571D02*
X160266838Y-80990475D01*
X160266838Y-80990475D02*
X160152552Y-80990475D01*
X160152552Y-80990475D02*
X160000171Y-81028571D01*
X160000171Y-81028571D02*
X159923980Y-81066666D01*
X159923980Y-81066666D02*
X159847790Y-81142856D01*
X159847790Y-81142856D02*
X159809695Y-81257142D01*
X159809695Y-81257142D02*
X159809695Y-81333333D01*
X159809695Y-81333333D02*
X159847790Y-81447618D01*
X159847790Y-81447618D02*
X159885885Y-81485714D01*
X160609695Y-82247618D02*
X160609695Y-81790475D01*
X160609695Y-82019047D02*
X159809695Y-82019047D01*
X159809695Y-82019047D02*
X159923980Y-81942856D01*
X159923980Y-81942856D02*
X160000171Y-81866666D01*
X160000171Y-81866666D02*
X160038266Y-81790475D01*
X159809695Y-82742857D02*
X159809695Y-82819047D01*
X159809695Y-82819047D02*
X159847790Y-82895238D01*
X159847790Y-82895238D02*
X159885885Y-82933333D01*
X159885885Y-82933333D02*
X159962076Y-82971428D01*
X159962076Y-82971428D02*
X160114457Y-83009523D01*
X160114457Y-83009523D02*
X160304933Y-83009523D01*
X160304933Y-83009523D02*
X160457314Y-82971428D01*
X160457314Y-82971428D02*
X160533504Y-82933333D01*
X160533504Y-82933333D02*
X160571600Y-82895238D01*
X160571600Y-82895238D02*
X160609695Y-82819047D01*
X160609695Y-82819047D02*
X160609695Y-82742857D01*
X160609695Y-82742857D02*
X160571600Y-82666666D01*
X160571600Y-82666666D02*
X160533504Y-82628571D01*
X160533504Y-82628571D02*
X160457314Y-82590476D01*
X160457314Y-82590476D02*
X160304933Y-82552380D01*
X160304933Y-82552380D02*
X160114457Y-82552380D01*
X160114457Y-82552380D02*
X159962076Y-82590476D01*
X159962076Y-82590476D02*
X159885885Y-82628571D01*
X159885885Y-82628571D02*
X159847790Y-82666666D01*
X159847790Y-82666666D02*
X159809695Y-82742857D01*
X163068332Y-97033504D02*
X163106428Y-97071600D01*
X163106428Y-97071600D02*
X163220713Y-97109695D01*
X163220713Y-97109695D02*
X163296904Y-97109695D01*
X163296904Y-97109695D02*
X163411190Y-97071600D01*
X163411190Y-97071600D02*
X163487380Y-96995409D01*
X163487380Y-96995409D02*
X163525475Y-96919219D01*
X163525475Y-96919219D02*
X163563571Y-96766838D01*
X163563571Y-96766838D02*
X163563571Y-96652552D01*
X163563571Y-96652552D02*
X163525475Y-96500171D01*
X163525475Y-96500171D02*
X163487380Y-96423980D01*
X163487380Y-96423980D02*
X163411190Y-96347790D01*
X163411190Y-96347790D02*
X163296904Y-96309695D01*
X163296904Y-96309695D02*
X163220713Y-96309695D01*
X163220713Y-96309695D02*
X163106428Y-96347790D01*
X163106428Y-96347790D02*
X163068332Y-96385885D01*
X162382618Y-96309695D02*
X162534999Y-96309695D01*
X162534999Y-96309695D02*
X162611190Y-96347790D01*
X162611190Y-96347790D02*
X162649285Y-96385885D01*
X162649285Y-96385885D02*
X162725475Y-96500171D01*
X162725475Y-96500171D02*
X162763571Y-96652552D01*
X162763571Y-96652552D02*
X162763571Y-96957314D01*
X162763571Y-96957314D02*
X162725475Y-97033504D01*
X162725475Y-97033504D02*
X162687380Y-97071600D01*
X162687380Y-97071600D02*
X162611190Y-97109695D01*
X162611190Y-97109695D02*
X162458809Y-97109695D01*
X162458809Y-97109695D02*
X162382618Y-97071600D01*
X162382618Y-97071600D02*
X162344523Y-97033504D01*
X162344523Y-97033504D02*
X162306428Y-96957314D01*
X162306428Y-96957314D02*
X162306428Y-96766838D01*
X162306428Y-96766838D02*
X162344523Y-96690647D01*
X162344523Y-96690647D02*
X162382618Y-96652552D01*
X162382618Y-96652552D02*
X162458809Y-96614457D01*
X162458809Y-96614457D02*
X162611190Y-96614457D01*
X162611190Y-96614457D02*
X162687380Y-96652552D01*
X162687380Y-96652552D02*
X162725475Y-96690647D01*
X162725475Y-96690647D02*
X162763571Y-96766838D01*
X167533333Y-83590304D02*
X167533333Y-83018876D01*
X167533333Y-83018876D02*
X167495238Y-82904590D01*
X167495238Y-82904590D02*
X167419047Y-82828400D01*
X167419047Y-82828400D02*
X167304762Y-82790304D01*
X167304762Y-82790304D02*
X167228571Y-82790304D01*
X167876190Y-83514114D02*
X167914286Y-83552209D01*
X167914286Y-83552209D02*
X167990476Y-83590304D01*
X167990476Y-83590304D02*
X168180952Y-83590304D01*
X168180952Y-83590304D02*
X168257143Y-83552209D01*
X168257143Y-83552209D02*
X168295238Y-83514114D01*
X168295238Y-83514114D02*
X168333333Y-83437923D01*
X168333333Y-83437923D02*
X168333333Y-83361733D01*
X168333333Y-83361733D02*
X168295238Y-83247447D01*
X168295238Y-83247447D02*
X167838095Y-82790304D01*
X167838095Y-82790304D02*
X168333333Y-82790304D01*
D11*
X165655057Y-97073687D02*
X165702676Y-97121307D01*
X165702676Y-97121307D02*
X165845533Y-97168926D01*
X165845533Y-97168926D02*
X165940771Y-97168926D01*
X165940771Y-97168926D02*
X166083628Y-97121307D01*
X166083628Y-97121307D02*
X166178866Y-97026068D01*
X166178866Y-97026068D02*
X166226485Y-96930830D01*
X166226485Y-96930830D02*
X166274104Y-96740354D01*
X166274104Y-96740354D02*
X166274104Y-96597497D01*
X166274104Y-96597497D02*
X166226485Y-96407021D01*
X166226485Y-96407021D02*
X166178866Y-96311783D01*
X166178866Y-96311783D02*
X166083628Y-96216545D01*
X166083628Y-96216545D02*
X165940771Y-96168926D01*
X165940771Y-96168926D02*
X165845533Y-96168926D01*
X165845533Y-96168926D02*
X165702676Y-96216545D01*
X165702676Y-96216545D02*
X165655057Y-96264164D01*
X164750295Y-96168926D02*
X165226485Y-96168926D01*
X165226485Y-96168926D02*
X165274104Y-96645116D01*
X165274104Y-96645116D02*
X165226485Y-96597497D01*
X165226485Y-96597497D02*
X165131247Y-96549878D01*
X165131247Y-96549878D02*
X164893152Y-96549878D01*
X164893152Y-96549878D02*
X164797914Y-96597497D01*
X164797914Y-96597497D02*
X164750295Y-96645116D01*
X164750295Y-96645116D02*
X164702676Y-96740354D01*
X164702676Y-96740354D02*
X164702676Y-96978449D01*
X164702676Y-96978449D02*
X164750295Y-97073687D01*
X164750295Y-97073687D02*
X164797914Y-97121307D01*
X164797914Y-97121307D02*
X164893152Y-97168926D01*
X164893152Y-97168926D02*
X165131247Y-97168926D01*
X165131247Y-97168926D02*
X165226485Y-97121307D01*
X165226485Y-97121307D02*
X165274104Y-97073687D01*
X162743350Y-92468090D02*
X162790969Y-92515710D01*
X162790969Y-92515710D02*
X162933826Y-92563329D01*
X162933826Y-92563329D02*
X163029064Y-92563329D01*
X163029064Y-92563329D02*
X163171921Y-92515710D01*
X163171921Y-92515710D02*
X163267159Y-92420471D01*
X163267159Y-92420471D02*
X163314778Y-92325233D01*
X163314778Y-92325233D02*
X163362397Y-92134757D01*
X163362397Y-92134757D02*
X163362397Y-91991900D01*
X163362397Y-91991900D02*
X163314778Y-91801424D01*
X163314778Y-91801424D02*
X163267159Y-91706186D01*
X163267159Y-91706186D02*
X163171921Y-91610948D01*
X163171921Y-91610948D02*
X163029064Y-91563329D01*
X163029064Y-91563329D02*
X162933826Y-91563329D01*
X162933826Y-91563329D02*
X162790969Y-91610948D01*
X162790969Y-91610948D02*
X162743350Y-91658567D01*
X162410016Y-91563329D02*
X161790969Y-91563329D01*
X161790969Y-91563329D02*
X162124302Y-91944281D01*
X162124302Y-91944281D02*
X161981445Y-91944281D01*
X161981445Y-91944281D02*
X161886207Y-91991900D01*
X161886207Y-91991900D02*
X161838588Y-92039519D01*
X161838588Y-92039519D02*
X161790969Y-92134757D01*
X161790969Y-92134757D02*
X161790969Y-92372852D01*
X161790969Y-92372852D02*
X161838588Y-92468090D01*
X161838588Y-92468090D02*
X161886207Y-92515710D01*
X161886207Y-92515710D02*
X161981445Y-92563329D01*
X161981445Y-92563329D02*
X162267159Y-92563329D01*
X162267159Y-92563329D02*
X162362397Y-92515710D01*
X162362397Y-92515710D02*
X162410016Y-92468090D01*
D12*
X163647195Y-93752976D02*
X164294814Y-93752976D01*
X164294814Y-93752976D02*
X164371004Y-93791071D01*
X164371004Y-93791071D02*
X164409100Y-93829166D01*
X164409100Y-93829166D02*
X164447195Y-93905357D01*
X164447195Y-93905357D02*
X164447195Y-94057738D01*
X164447195Y-94057738D02*
X164409100Y-94133928D01*
X164409100Y-94133928D02*
X164371004Y-94172023D01*
X164371004Y-94172023D02*
X164294814Y-94210119D01*
X164294814Y-94210119D02*
X163647195Y-94210119D01*
X164447195Y-95010118D02*
X164447195Y-94552975D01*
X164447195Y-94781547D02*
X163647195Y-94781547D01*
X163647195Y-94781547D02*
X163761480Y-94705356D01*
X163761480Y-94705356D02*
X163837671Y-94629166D01*
X163837671Y-94629166D02*
X163875766Y-94552975D01*
D11*
X161916666Y-88859580D02*
X161964285Y-88907200D01*
X161964285Y-88907200D02*
X162107142Y-88954819D01*
X162107142Y-88954819D02*
X162202380Y-88954819D01*
X162202380Y-88954819D02*
X162345237Y-88907200D01*
X162345237Y-88907200D02*
X162440475Y-88811961D01*
X162440475Y-88811961D02*
X162488094Y-88716723D01*
X162488094Y-88716723D02*
X162535713Y-88526247D01*
X162535713Y-88526247D02*
X162535713Y-88383390D01*
X162535713Y-88383390D02*
X162488094Y-88192914D01*
X162488094Y-88192914D02*
X162440475Y-88097676D01*
X162440475Y-88097676D02*
X162345237Y-88002438D01*
X162345237Y-88002438D02*
X162202380Y-87954819D01*
X162202380Y-87954819D02*
X162107142Y-87954819D01*
X162107142Y-87954819D02*
X161964285Y-88002438D01*
X161964285Y-88002438D02*
X161916666Y-88050057D01*
X161059523Y-88288152D02*
X161059523Y-88954819D01*
X161297618Y-87907200D02*
X161535713Y-88621485D01*
X161535713Y-88621485D02*
X160916666Y-88621485D01*
X158359580Y-105833333D02*
X158407200Y-105785714D01*
X158407200Y-105785714D02*
X158454819Y-105642857D01*
X158454819Y-105642857D02*
X158454819Y-105547619D01*
X158454819Y-105547619D02*
X158407200Y-105404762D01*
X158407200Y-105404762D02*
X158311961Y-105309524D01*
X158311961Y-105309524D02*
X158216723Y-105261905D01*
X158216723Y-105261905D02*
X158026247Y-105214286D01*
X158026247Y-105214286D02*
X157883390Y-105214286D01*
X157883390Y-105214286D02*
X157692914Y-105261905D01*
X157692914Y-105261905D02*
X157597676Y-105309524D01*
X157597676Y-105309524D02*
X157502438Y-105404762D01*
X157502438Y-105404762D02*
X157454819Y-105547619D01*
X157454819Y-105547619D02*
X157454819Y-105642857D01*
X157454819Y-105642857D02*
X157502438Y-105785714D01*
X157502438Y-105785714D02*
X157550057Y-105833333D01*
X157454819Y-106166667D02*
X157454819Y-106833333D01*
X157454819Y-106833333D02*
X158454819Y-106404762D01*
D12*
X157566666Y-88540647D02*
X157833332Y-88540647D01*
X157833332Y-88959695D02*
X157833332Y-88159695D01*
X157833332Y-88159695D02*
X157452380Y-88159695D01*
X156728571Y-88959695D02*
X157185714Y-88959695D01*
X156957142Y-88959695D02*
X156957142Y-88159695D01*
X156957142Y-88159695D02*
X157033333Y-88273980D01*
X157033333Y-88273980D02*
X157109523Y-88350171D01*
X157109523Y-88350171D02*
X157185714Y-88388266D01*
X161633332Y-98583504D02*
X161671428Y-98621600D01*
X161671428Y-98621600D02*
X161785713Y-98659695D01*
X161785713Y-98659695D02*
X161861904Y-98659695D01*
X161861904Y-98659695D02*
X161976190Y-98621600D01*
X161976190Y-98621600D02*
X162052380Y-98545409D01*
X162052380Y-98545409D02*
X162090475Y-98469219D01*
X162090475Y-98469219D02*
X162128571Y-98316838D01*
X162128571Y-98316838D02*
X162128571Y-98202552D01*
X162128571Y-98202552D02*
X162090475Y-98050171D01*
X162090475Y-98050171D02*
X162052380Y-97973980D01*
X162052380Y-97973980D02*
X161976190Y-97897790D01*
X161976190Y-97897790D02*
X161861904Y-97859695D01*
X161861904Y-97859695D02*
X161785713Y-97859695D01*
X161785713Y-97859695D02*
X161671428Y-97897790D01*
X161671428Y-97897790D02*
X161633332Y-97935885D01*
X160871428Y-98659695D02*
X161328571Y-98659695D01*
X161099999Y-98659695D02*
X161099999Y-97859695D01*
X161099999Y-97859695D02*
X161176190Y-97973980D01*
X161176190Y-97973980D02*
X161252380Y-98050171D01*
X161252380Y-98050171D02*
X161328571Y-98088266D01*
X158483333Y-94809695D02*
X158864285Y-94809695D01*
X158864285Y-94809695D02*
X158864285Y-94009695D01*
X157797619Y-94809695D02*
X158254762Y-94809695D01*
X158026190Y-94809695D02*
X158026190Y-94009695D01*
X158026190Y-94009695D02*
X158102381Y-94123980D01*
X158102381Y-94123980D02*
X158178571Y-94200171D01*
X158178571Y-94200171D02*
X158254762Y-94238266D01*
X161633332Y-100633504D02*
X161671428Y-100671600D01*
X161671428Y-100671600D02*
X161785713Y-100709695D01*
X161785713Y-100709695D02*
X161861904Y-100709695D01*
X161861904Y-100709695D02*
X161976190Y-100671600D01*
X161976190Y-100671600D02*
X162052380Y-100595409D01*
X162052380Y-100595409D02*
X162090475Y-100519219D01*
X162090475Y-100519219D02*
X162128571Y-100366838D01*
X162128571Y-100366838D02*
X162128571Y-100252552D01*
X162128571Y-100252552D02*
X162090475Y-100100171D01*
X162090475Y-100100171D02*
X162052380Y-100023980D01*
X162052380Y-100023980D02*
X161976190Y-99947790D01*
X161976190Y-99947790D02*
X161861904Y-99909695D01*
X161861904Y-99909695D02*
X161785713Y-99909695D01*
X161785713Y-99909695D02*
X161671428Y-99947790D01*
X161671428Y-99947790D02*
X161633332Y-99985885D01*
X161328571Y-99985885D02*
X161290475Y-99947790D01*
X161290475Y-99947790D02*
X161214285Y-99909695D01*
X161214285Y-99909695D02*
X161023809Y-99909695D01*
X161023809Y-99909695D02*
X160947618Y-99947790D01*
X160947618Y-99947790D02*
X160909523Y-99985885D01*
X160909523Y-99985885D02*
X160871428Y-100062076D01*
X160871428Y-100062076D02*
X160871428Y-100138266D01*
X160871428Y-100138266D02*
X160909523Y-100252552D01*
X160909523Y-100252552D02*
X161366666Y-100709695D01*
X161366666Y-100709695D02*
X160871428Y-100709695D01*
X160616666Y-109509695D02*
X160616666Y-110081123D01*
X160616666Y-110081123D02*
X160654761Y-110195409D01*
X160654761Y-110195409D02*
X160730952Y-110271600D01*
X160730952Y-110271600D02*
X160845237Y-110309695D01*
X160845237Y-110309695D02*
X160921428Y-110309695D01*
X159816666Y-110309695D02*
X160273809Y-110309695D01*
X160045237Y-110309695D02*
X160045237Y-109509695D01*
X160045237Y-109509695D02*
X160121428Y-109623980D01*
X160121428Y-109623980D02*
X160197618Y-109700171D01*
X160197618Y-109700171D02*
X160273809Y-109738266D01*
X160883332Y-90859695D02*
X161149999Y-90478742D01*
X161340475Y-90859695D02*
X161340475Y-90059695D01*
X161340475Y-90059695D02*
X161035713Y-90059695D01*
X161035713Y-90059695D02*
X160959523Y-90097790D01*
X160959523Y-90097790D02*
X160921428Y-90135885D01*
X160921428Y-90135885D02*
X160883332Y-90212076D01*
X160883332Y-90212076D02*
X160883332Y-90326361D01*
X160883332Y-90326361D02*
X160921428Y-90402552D01*
X160921428Y-90402552D02*
X160959523Y-90440647D01*
X160959523Y-90440647D02*
X161035713Y-90478742D01*
X161035713Y-90478742D02*
X161340475Y-90478742D01*
X160121428Y-90859695D02*
X160578571Y-90859695D01*
X160349999Y-90859695D02*
X160349999Y-90059695D01*
X160349999Y-90059695D02*
X160426190Y-90173980D01*
X160426190Y-90173980D02*
X160502380Y-90250171D01*
X160502380Y-90250171D02*
X160578571Y-90288266D01*
D13*
%TO.C,G\u002A\u002A\u002A*%
G36*
X173857086Y-96862370D02*
G01*
X173865139Y-96899859D01*
X173870808Y-96925909D01*
X173873758Y-96938938D01*
X173874512Y-96943316D01*
X173873001Y-96950692D01*
X173865901Y-96958360D01*
X173851077Y-96967822D01*
X173826398Y-96980580D01*
X173789730Y-96998138D01*
X173698060Y-97037926D01*
X173558753Y-97087280D01*
X173409257Y-97128369D01*
X173251566Y-97160666D01*
X173087672Y-97183646D01*
X173079029Y-97184574D01*
X172962928Y-97194629D01*
X172839802Y-97201212D01*
X172712817Y-97204366D01*
X172585140Y-97204136D01*
X172459936Y-97200567D01*
X172340371Y-97193702D01*
X172229611Y-97183586D01*
X172130823Y-97170263D01*
X172107576Y-97166714D01*
X172083532Y-97164173D01*
X172070777Y-97164988D01*
X172067033Y-97169116D01*
X172067730Y-97173585D01*
X172071252Y-97191992D01*
X172077493Y-97223204D01*
X172086165Y-97265829D01*
X172096981Y-97318472D01*
X172109655Y-97379738D01*
X172123899Y-97448234D01*
X172139427Y-97522566D01*
X172155952Y-97601339D01*
X172167012Y-97654039D01*
X172182915Y-97730127D01*
X172196436Y-97795163D01*
X172197629Y-97800900D01*
X172210867Y-97864954D01*
X172222343Y-97920889D01*
X172231768Y-97967302D01*
X172238856Y-98002791D01*
X172243320Y-98025954D01*
X172244871Y-98035390D01*
X172244694Y-98036139D01*
X172241735Y-98038192D01*
X172234352Y-98039960D01*
X172221542Y-98041463D01*
X172202301Y-98042723D01*
X172175625Y-98043759D01*
X172140510Y-98044591D01*
X172095954Y-98045239D01*
X172040952Y-98045725D01*
X171974500Y-98046067D01*
X171895595Y-98046286D01*
X171803234Y-98046403D01*
X171696412Y-98046438D01*
X171622716Y-98046430D01*
X171527177Y-98046380D01*
X171445315Y-98046261D01*
X171376068Y-98046045D01*
X171318376Y-98045708D01*
X171271175Y-98045223D01*
X171233404Y-98044565D01*
X171204003Y-98043706D01*
X171181908Y-98042622D01*
X171166058Y-98041287D01*
X171155393Y-98039673D01*
X171148849Y-98037756D01*
X171145366Y-98035509D01*
X171143881Y-98032907D01*
X171143857Y-98032824D01*
X171141475Y-98022570D01*
X171136203Y-97998575D01*
X171128331Y-97962190D01*
X171118147Y-97914766D01*
X171105939Y-97857652D01*
X171091997Y-97792200D01*
X171076609Y-97719759D01*
X171060063Y-97641680D01*
X171042649Y-97559314D01*
X171028952Y-97494485D01*
X170999797Y-97356647D01*
X170971483Y-97223002D01*
X170944177Y-97094332D01*
X170918047Y-96971417D01*
X170893260Y-96855040D01*
X170869984Y-96745981D01*
X170848387Y-96645022D01*
X170844649Y-96627595D01*
X171086199Y-96627595D01*
X171086341Y-96628183D01*
X171089014Y-96640355D01*
X171094579Y-96666272D01*
X171102783Y-96704739D01*
X171113371Y-96754560D01*
X171126090Y-96814537D01*
X171140687Y-96883475D01*
X171156908Y-96960176D01*
X171174500Y-97043446D01*
X171193208Y-97132086D01*
X171212780Y-97224900D01*
X171335420Y-97806742D01*
X171648003Y-97806742D01*
X171716017Y-97806731D01*
X171781410Y-97806649D01*
X171833922Y-97806428D01*
X171874939Y-97805998D01*
X171905846Y-97805290D01*
X171928028Y-97804236D01*
X171942871Y-97802765D01*
X171951760Y-97800808D01*
X171956081Y-97798297D01*
X171957218Y-97795163D01*
X171956558Y-97791335D01*
X171955036Y-97784699D01*
X171950473Y-97763791D01*
X171943326Y-97730560D01*
X171933936Y-97686608D01*
X171922644Y-97633539D01*
X171909792Y-97572955D01*
X171895721Y-97506461D01*
X171880774Y-97435658D01*
X171869891Y-97384472D01*
X171855120Y-97316394D01*
X171841419Y-97254844D01*
X171829125Y-97201262D01*
X171818577Y-97157082D01*
X171810111Y-97123743D01*
X171804067Y-97102680D01*
X171800781Y-97095332D01*
X171799320Y-97095225D01*
X171783606Y-97091161D01*
X171757486Y-97082132D01*
X171724068Y-97069390D01*
X171686460Y-97054184D01*
X171647768Y-97037766D01*
X171611099Y-97021385D01*
X171579561Y-97006293D01*
X171570995Y-97001963D01*
X171447254Y-96932239D01*
X171334120Y-96853903D01*
X171228636Y-96764703D01*
X171127844Y-96662389D01*
X171117306Y-96651070D01*
X171100056Y-96634197D01*
X171089047Y-96625836D01*
X171086199Y-96627595D01*
X170844649Y-96627595D01*
X170828635Y-96552945D01*
X170810897Y-96470530D01*
X170795340Y-96398560D01*
X170782131Y-96337815D01*
X170771438Y-96289077D01*
X170763428Y-96253128D01*
X170758270Y-96230748D01*
X170756129Y-96222719D01*
X170755197Y-96222447D01*
X170753428Y-96223732D01*
X170750586Y-96227375D01*
X170746328Y-96234051D01*
X170740306Y-96244434D01*
X170732176Y-96259198D01*
X170721592Y-96279017D01*
X170708208Y-96304564D01*
X170691679Y-96336514D01*
X170671659Y-96375541D01*
X170647803Y-96422319D01*
X170619765Y-96477520D01*
X170587200Y-96541821D01*
X170549761Y-96615894D01*
X170507104Y-96700413D01*
X170458883Y-96796053D01*
X170404752Y-96903488D01*
X170344366Y-97023390D01*
X170277379Y-97156435D01*
X169829248Y-98046559D01*
X169372789Y-98044565D01*
X168916330Y-98042572D01*
X168890652Y-97922724D01*
X168887590Y-97908396D01*
X168879551Y-97870639D01*
X168868620Y-97819172D01*
X168854993Y-97754916D01*
X168838864Y-97678796D01*
X168820429Y-97591733D01*
X168799882Y-97494652D01*
X168777419Y-97388475D01*
X168753235Y-97274125D01*
X168727524Y-97152526D01*
X168700482Y-97024601D01*
X168672304Y-96891272D01*
X168643185Y-96753463D01*
X168613320Y-96612097D01*
X168582904Y-96468097D01*
X168552132Y-96322385D01*
X168521199Y-96175886D01*
X168490300Y-96029522D01*
X168459631Y-95884216D01*
X168429386Y-95740892D01*
X168399760Y-95600472D01*
X168370948Y-95463879D01*
X168343147Y-95332037D01*
X168316549Y-95205869D01*
X168310983Y-95179454D01*
X168287637Y-95068501D01*
X168265253Y-94961872D01*
X168244035Y-94860551D01*
X168224186Y-94765519D01*
X168205910Y-94677758D01*
X168189411Y-94598250D01*
X168185239Y-94578058D01*
X168425206Y-94578058D01*
X168426280Y-94583338D01*
X168430353Y-94602857D01*
X168437295Y-94635951D01*
X168446925Y-94681769D01*
X168459064Y-94739458D01*
X168473532Y-94808167D01*
X168490149Y-94887045D01*
X168508736Y-94975239D01*
X168529112Y-95071898D01*
X168551099Y-95176170D01*
X168574516Y-95287204D01*
X168599182Y-95404148D01*
X168624920Y-95526151D01*
X168651549Y-95652359D01*
X168678888Y-95781923D01*
X168706759Y-95913990D01*
X168734981Y-96047709D01*
X168763375Y-96182227D01*
X168791761Y-96316694D01*
X168819960Y-96450257D01*
X168847790Y-96582065D01*
X168875074Y-96711267D01*
X168901630Y-96837009D01*
X168927279Y-96958442D01*
X168951842Y-97074713D01*
X168975138Y-97184970D01*
X168996988Y-97288362D01*
X169017212Y-97384037D01*
X169035631Y-97471143D01*
X169052064Y-97548830D01*
X169066331Y-97616244D01*
X169078254Y-97672535D01*
X169087651Y-97716850D01*
X169094344Y-97748339D01*
X169098153Y-97766149D01*
X169106914Y-97806742D01*
X169395753Y-97806742D01*
X169684591Y-97806742D01*
X169966251Y-97248097D01*
X169991793Y-97197431D01*
X170046898Y-97088100D01*
X170106827Y-96969167D01*
X170170170Y-96843433D01*
X170235516Y-96713697D01*
X170301457Y-96582761D01*
X170366580Y-96453424D01*
X170429476Y-96328488D01*
X170488734Y-96210751D01*
X170542944Y-96103015D01*
X170573537Y-96042266D01*
X170617227Y-95955725D01*
X170658748Y-95873729D01*
X170697571Y-95797311D01*
X170733168Y-95727500D01*
X170765010Y-95665330D01*
X170792569Y-95611829D01*
X170815316Y-95568031D01*
X170832723Y-95534965D01*
X170844261Y-95513663D01*
X170849400Y-95505157D01*
X170855805Y-95497136D01*
X170860823Y-95484404D01*
X170861092Y-95481895D01*
X170866625Y-95465063D01*
X170877985Y-95439319D01*
X170893430Y-95408078D01*
X170911221Y-95374754D01*
X170929618Y-95342764D01*
X170946881Y-95315521D01*
X170985581Y-95264621D01*
X171048744Y-95197705D01*
X171123435Y-95133077D01*
X171207431Y-95072618D01*
X171298508Y-95018209D01*
X171315467Y-95008924D01*
X171339837Y-94994566D01*
X171353747Y-94984003D01*
X171359497Y-94975278D01*
X171359389Y-94966435D01*
X171357136Y-94956404D01*
X171352080Y-94933009D01*
X171345052Y-94900001D01*
X171336568Y-94859855D01*
X171327147Y-94815044D01*
X171317304Y-94768043D01*
X171307558Y-94721327D01*
X171298424Y-94677369D01*
X171290420Y-94638644D01*
X171284063Y-94607626D01*
X171279869Y-94586789D01*
X171278357Y-94578609D01*
X171278292Y-94578526D01*
X171269514Y-94577653D01*
X171247123Y-94576853D01*
X171212815Y-94576146D01*
X171168286Y-94575558D01*
X171115233Y-94575109D01*
X171055350Y-94574824D01*
X170990335Y-94574726D01*
X170702314Y-94574733D01*
X170379981Y-95218424D01*
X170295284Y-95387539D01*
X170210642Y-95556481D01*
X170132427Y-95712517D01*
X170060392Y-95856130D01*
X169994289Y-95987804D01*
X169933873Y-96108021D01*
X169878896Y-96217265D01*
X169829111Y-96316019D01*
X169784271Y-96404766D01*
X169744131Y-96483988D01*
X169708442Y-96554170D01*
X169676958Y-96615793D01*
X169649432Y-96669342D01*
X169625617Y-96715299D01*
X169605266Y-96754147D01*
X169588133Y-96786370D01*
X169573971Y-96812451D01*
X169562532Y-96832871D01*
X169553570Y-96848116D01*
X169546838Y-96858667D01*
X169542090Y-96865009D01*
X169539078Y-96867623D01*
X169537555Y-96866993D01*
X169537416Y-96866577D01*
X169534688Y-96855255D01*
X169528996Y-96829765D01*
X169520520Y-96790954D01*
X169509441Y-96739668D01*
X169495938Y-96676753D01*
X169480191Y-96603055D01*
X169462379Y-96519420D01*
X169442684Y-96426694D01*
X169421285Y-96325723D01*
X169398362Y-96217353D01*
X169374094Y-96102430D01*
X169348662Y-95981800D01*
X169322246Y-95856309D01*
X169295026Y-95726803D01*
X169290957Y-95707430D01*
X169263868Y-95578503D01*
X169237635Y-95453736D01*
X169212439Y-95333971D01*
X169188456Y-95220055D01*
X169165865Y-95112830D01*
X169144844Y-95013141D01*
X169125572Y-94921833D01*
X169108226Y-94839750D01*
X169092986Y-94767735D01*
X169080029Y-94706634D01*
X169069534Y-94657291D01*
X169061679Y-94620549D01*
X169056642Y-94597254D01*
X169054602Y-94588249D01*
X169054328Y-94587458D01*
X169052030Y-94584223D01*
X169046974Y-94581585D01*
X169037748Y-94579483D01*
X169022942Y-94577857D01*
X169001142Y-94576646D01*
X168970938Y-94575791D01*
X168930917Y-94575231D01*
X168879668Y-94574906D01*
X168815778Y-94574755D01*
X168737836Y-94574718D01*
X168711012Y-94574730D01*
X168644954Y-94574869D01*
X168584592Y-94575149D01*
X168531554Y-94575553D01*
X168487469Y-94576064D01*
X168453964Y-94576663D01*
X168432667Y-94577333D01*
X168425206Y-94578058D01*
X168185239Y-94578058D01*
X168174892Y-94527979D01*
X168162556Y-94467925D01*
X168152607Y-94419072D01*
X168145249Y-94382402D01*
X168140684Y-94358896D01*
X168139118Y-94349537D01*
X168139126Y-94349037D01*
X168139751Y-94346325D01*
X168142124Y-94343987D01*
X168147300Y-94341995D01*
X168156334Y-94340323D01*
X168170282Y-94338941D01*
X168190198Y-94337822D01*
X168217137Y-94336939D01*
X168252155Y-94336264D01*
X168296306Y-94335769D01*
X168350647Y-94335426D01*
X168416231Y-94335208D01*
X168494114Y-94335086D01*
X168585351Y-94335034D01*
X168690998Y-94335022D01*
X169242877Y-94335022D01*
X169247160Y-94356286D01*
X169250068Y-94370641D01*
X169258803Y-94413207D01*
X169269944Y-94466908D01*
X169283248Y-94530602D01*
X169298470Y-94603147D01*
X169315367Y-94683401D01*
X169333695Y-94770223D01*
X169353212Y-94862470D01*
X169373672Y-94959000D01*
X169394833Y-95058671D01*
X169416451Y-95160342D01*
X169438283Y-95262870D01*
X169460084Y-95365113D01*
X169481612Y-95465930D01*
X169502622Y-95564178D01*
X169522872Y-95658716D01*
X169542116Y-95748402D01*
X169560113Y-95832093D01*
X169576617Y-95908647D01*
X169591387Y-95976923D01*
X169604177Y-96035779D01*
X169614745Y-96084073D01*
X169622846Y-96120662D01*
X169628238Y-96144405D01*
X169630676Y-96154160D01*
X169631377Y-96154592D01*
X169635307Y-96150637D01*
X169642699Y-96139425D01*
X169653817Y-96120449D01*
X169668923Y-96093201D01*
X169688280Y-96057174D01*
X169712151Y-96011861D01*
X169740799Y-95956756D01*
X169774486Y-95891350D01*
X169813476Y-95815138D01*
X169858032Y-95727611D01*
X169908416Y-95628263D01*
X169964890Y-95516587D01*
X170027719Y-95392075D01*
X170097165Y-95254221D01*
X170551490Y-94351739D01*
X171475563Y-94351739D01*
X171475786Y-94358994D01*
X171478886Y-94379812D01*
X171484646Y-94412406D01*
X171492735Y-94455038D01*
X171502822Y-94505969D01*
X171514577Y-94563459D01*
X171527668Y-94625772D01*
X171540028Y-94683120D01*
X171552803Y-94740807D01*
X171564481Y-94791933D01*
X171574655Y-94834781D01*
X171582916Y-94867634D01*
X171588856Y-94888777D01*
X171592067Y-94896494D01*
X171593798Y-94896385D01*
X171607797Y-94893172D01*
X171633721Y-94886180D01*
X171669497Y-94876032D01*
X171713049Y-94863349D01*
X171762304Y-94848753D01*
X171815188Y-94832865D01*
X171869626Y-94816307D01*
X171923546Y-94799700D01*
X171974871Y-94783667D01*
X172021529Y-94768829D01*
X172061445Y-94755807D01*
X172102183Y-94741731D01*
X172160950Y-94719260D01*
X172211373Y-94697228D01*
X172251209Y-94676643D01*
X172278215Y-94658512D01*
X172287965Y-94648564D01*
X172302341Y-94618547D01*
X172304814Y-94579891D01*
X172295243Y-94533629D01*
X172292487Y-94525299D01*
X172275417Y-94487324D01*
X172251944Y-94455432D01*
X172220562Y-94428765D01*
X172179768Y-94406464D01*
X172128054Y-94387671D01*
X172063915Y-94371526D01*
X171985845Y-94357171D01*
X171968048Y-94355156D01*
X171936773Y-94353033D01*
X171896231Y-94351164D01*
X171848669Y-94349574D01*
X171796335Y-94348286D01*
X171741475Y-94347324D01*
X171686339Y-94346713D01*
X171633173Y-94346476D01*
X171584225Y-94346637D01*
X171541743Y-94347220D01*
X171507973Y-94348248D01*
X171485164Y-94349747D01*
X171475563Y-94351739D01*
X170551490Y-94351739D01*
X170557959Y-94338888D01*
X170616605Y-94336630D01*
X170622582Y-94336366D01*
X170649337Y-94334264D01*
X170668147Y-94331262D01*
X170675252Y-94327919D01*
X170674416Y-94323059D01*
X170670690Y-94304582D01*
X170664333Y-94274099D01*
X170655735Y-94233410D01*
X170645284Y-94184315D01*
X170633369Y-94128618D01*
X170620380Y-94068117D01*
X170606706Y-94004614D01*
X170592735Y-93939911D01*
X170578856Y-93875807D01*
X170565459Y-93814105D01*
X170552933Y-93756604D01*
X170550713Y-93746459D01*
X170791233Y-93746459D01*
X170791463Y-93748106D01*
X170794181Y-93761990D01*
X170799578Y-93787908D01*
X170807167Y-93823630D01*
X170816462Y-93866923D01*
X170826976Y-93915559D01*
X170838222Y-93967305D01*
X170849713Y-94019932D01*
X170860964Y-94071209D01*
X170871486Y-94118905D01*
X170880795Y-94160789D01*
X170888402Y-94194631D01*
X170893822Y-94218199D01*
X170896567Y-94229265D01*
X170901520Y-94237701D01*
X170913713Y-94237750D01*
X170943607Y-94226450D01*
X170989203Y-94212334D01*
X171044839Y-94197302D01*
X171107720Y-94181975D01*
X171175051Y-94166971D01*
X171244039Y-94152911D01*
X171311890Y-94140415D01*
X171375808Y-94130101D01*
X171432999Y-94122589D01*
X171476853Y-94118341D01*
X171566498Y-94112837D01*
X171662609Y-94110476D01*
X171761564Y-94111153D01*
X171859744Y-94114764D01*
X171953528Y-94121205D01*
X172039295Y-94130371D01*
X172113425Y-94142158D01*
X172125603Y-94144707D01*
X172168584Y-94155720D01*
X172215468Y-94170106D01*
X172261493Y-94186233D01*
X172301900Y-94202466D01*
X172331930Y-94217171D01*
X172347521Y-94226713D01*
X172404561Y-94272468D01*
X172452914Y-94329075D01*
X172491441Y-94394297D01*
X172519002Y-94465895D01*
X172534457Y-94541631D01*
X172535546Y-94579891D01*
X172536666Y-94619268D01*
X172534543Y-94643295D01*
X172520877Y-94707488D01*
X172495296Y-94763148D01*
X172456687Y-94812265D01*
X172403940Y-94856828D01*
X172395357Y-94862821D01*
X172365877Y-94881519D01*
X172332335Y-94899851D01*
X172293367Y-94918341D01*
X172247607Y-94937511D01*
X172193689Y-94957885D01*
X172143765Y-94975278D01*
X172130249Y-94979987D01*
X172055920Y-95004341D01*
X171969338Y-95031470D01*
X171869136Y-95061897D01*
X171848746Y-95068032D01*
X171768114Y-95092689D01*
X171699624Y-95114438D01*
X171640984Y-95134096D01*
X171589900Y-95152481D01*
X171544080Y-95170412D01*
X171501229Y-95188706D01*
X171459055Y-95208181D01*
X171446078Y-95214461D01*
X171349447Y-95267564D01*
X171267218Y-95325170D01*
X171198894Y-95387796D01*
X171143982Y-95455958D01*
X171101985Y-95530172D01*
X171072408Y-95610953D01*
X171067764Y-95632366D01*
X171062433Y-95675040D01*
X171059092Y-95727133D01*
X171057741Y-95785090D01*
X171058382Y-95845355D01*
X171061016Y-95904376D01*
X171065644Y-95958597D01*
X171072268Y-96004463D01*
X171072750Y-96007001D01*
X171085446Y-96062895D01*
X171102587Y-96123951D01*
X171122511Y-96185052D01*
X171143555Y-96241080D01*
X171164056Y-96286920D01*
X171186227Y-96327942D01*
X171243273Y-96415801D01*
X171311212Y-96501309D01*
X171387109Y-96580947D01*
X171468029Y-96651197D01*
X171531736Y-96698381D01*
X171615342Y-96752358D01*
X171702281Y-96799192D01*
X171794538Y-96839643D01*
X171894101Y-96874469D01*
X172002953Y-96904430D01*
X172123081Y-96930286D01*
X172256469Y-96952797D01*
X172280468Y-96955963D01*
X172320485Y-96959754D01*
X172368772Y-96962743D01*
X172427125Y-96965012D01*
X172497341Y-96966645D01*
X172581218Y-96967723D01*
X172603081Y-96967909D01*
X172663584Y-96968291D01*
X172720026Y-96968462D01*
X172770127Y-96968427D01*
X172811605Y-96968192D01*
X172842181Y-96967760D01*
X172859574Y-96967137D01*
X172907082Y-96963428D01*
X172996221Y-96954943D01*
X173085771Y-96944620D01*
X173172557Y-96932903D01*
X173253407Y-96920235D01*
X173325145Y-96907059D01*
X173384597Y-96893819D01*
X173417950Y-96885070D01*
X173462353Y-96872410D01*
X173504828Y-96859287D01*
X173542769Y-96846582D01*
X173573571Y-96835176D01*
X173594631Y-96825951D01*
X173603343Y-96819789D01*
X173603360Y-96816678D01*
X173601096Y-96800155D01*
X173596099Y-96771376D01*
X173588729Y-96732228D01*
X173579345Y-96684597D01*
X173568307Y-96630370D01*
X173555976Y-96571432D01*
X173549349Y-96540130D01*
X173537460Y-96483757D01*
X173526873Y-96433277D01*
X173517969Y-96390536D01*
X173511135Y-96357380D01*
X173506752Y-96335657D01*
X173505206Y-96327213D01*
X173504810Y-96326797D01*
X173495256Y-96328151D01*
X173475544Y-96333814D01*
X173449148Y-96342821D01*
X173384923Y-96365077D01*
X173232514Y-96410508D01*
X173075607Y-96447675D01*
X172917313Y-96476070D01*
X172760745Y-96495185D01*
X172609016Y-96504511D01*
X172465237Y-96503540D01*
X172362985Y-96497460D01*
X172255223Y-96486922D01*
X172160678Y-96472349D01*
X172078319Y-96453317D01*
X172007118Y-96429401D01*
X171946042Y-96400174D01*
X171894063Y-96365211D01*
X171850150Y-96324088D01*
X171813272Y-96276379D01*
X171782400Y-96221658D01*
X171756802Y-96162587D01*
X171738297Y-96101140D01*
X171729175Y-96038762D01*
X171728189Y-95969660D01*
X171729676Y-95936866D01*
X171732474Y-95908257D01*
X171737615Y-95885028D01*
X171746363Y-95861742D01*
X171759984Y-95832960D01*
X171778801Y-95798732D01*
X171805191Y-95762849D01*
X171840088Y-95727456D01*
X171855844Y-95713568D01*
X171880690Y-95693977D01*
X171908249Y-95675296D01*
X171939866Y-95656936D01*
X171976888Y-95638309D01*
X172020661Y-95618826D01*
X172072532Y-95597900D01*
X172133846Y-95574940D01*
X172205951Y-95549359D01*
X172290192Y-95520569D01*
X172387915Y-95487980D01*
X172459381Y-95464202D01*
X172548889Y-95433813D01*
X172626212Y-95406655D01*
X172692908Y-95382084D01*
X172750538Y-95359456D01*
X172800658Y-95338127D01*
X172844829Y-95317455D01*
X172884610Y-95296795D01*
X172921559Y-95275504D01*
X172957234Y-95252939D01*
X173023885Y-95204246D01*
X173085190Y-95146613D01*
X173133083Y-95084600D01*
X173168594Y-95016846D01*
X173192751Y-94941993D01*
X173197993Y-94913654D01*
X173203080Y-94864367D01*
X173205526Y-94808018D01*
X173205273Y-94749378D01*
X173202261Y-94693217D01*
X173196431Y-94644307D01*
X173172531Y-94526869D01*
X173137795Y-94409292D01*
X173093407Y-94301889D01*
X173038623Y-94203132D01*
X172972699Y-94111496D01*
X172894890Y-94025453D01*
X172843455Y-93977382D01*
X172740308Y-93897211D01*
X172625927Y-93827568D01*
X172500279Y-93768441D01*
X172363335Y-93719816D01*
X172215064Y-93681679D01*
X172055434Y-93654016D01*
X172049044Y-93653161D01*
X171940644Y-93641904D01*
X171821366Y-93634911D01*
X171694951Y-93632147D01*
X171565137Y-93633574D01*
X171435665Y-93639154D01*
X171310273Y-93648850D01*
X171192703Y-93662625D01*
X171162108Y-93667089D01*
X171106009Y-93676002D01*
X171048877Y-93685885D01*
X170992750Y-93696311D01*
X170939667Y-93706856D01*
X170891666Y-93717094D01*
X170850783Y-93726598D01*
X170819059Y-93734944D01*
X170798529Y-93741707D01*
X170791233Y-93746459D01*
X170550713Y-93746459D01*
X170541666Y-93705107D01*
X170532048Y-93661414D01*
X170524468Y-93627326D01*
X170519314Y-93604643D01*
X170516976Y-93595168D01*
X170517853Y-93592272D01*
X170529965Y-93584110D01*
X170554395Y-93573408D01*
X170589272Y-93560716D01*
X170632731Y-93546584D01*
X170682902Y-93531559D01*
X170737918Y-93516192D01*
X170795910Y-93501031D01*
X170855012Y-93486625D01*
X170913356Y-93473524D01*
X170969072Y-93462276D01*
X171014430Y-93453948D01*
X171144866Y-93432839D01*
X171270592Y-93417210D01*
X171396539Y-93406615D01*
X171527641Y-93400604D01*
X171668829Y-93398731D01*
X171742488Y-93399261D01*
X171866293Y-93402980D01*
X171980208Y-93410602D01*
X172087604Y-93422537D01*
X172191849Y-93439195D01*
X172296313Y-93460987D01*
X172404366Y-93488323D01*
X172470812Y-93507909D01*
X172610279Y-93559267D01*
X172741422Y-93621938D01*
X172863392Y-93695319D01*
X172975342Y-93778807D01*
X173076424Y-93871800D01*
X173165789Y-93973695D01*
X173242589Y-94083891D01*
X173245387Y-94088466D01*
X173297167Y-94184344D01*
X173342400Y-94289558D01*
X173380237Y-94400855D01*
X173409828Y-94514984D01*
X173430323Y-94628693D01*
X173440872Y-94738730D01*
X173440627Y-94841843D01*
X173432379Y-94926718D01*
X173413117Y-95024574D01*
X173383340Y-95112990D01*
X173342318Y-95193632D01*
X173289325Y-95268166D01*
X173223630Y-95338258D01*
X173209249Y-95351606D01*
X173146835Y-95403869D01*
X173078008Y-95452503D01*
X173001265Y-95498284D01*
X172915105Y-95541991D01*
X172818023Y-95584400D01*
X172708517Y-95626289D01*
X172585084Y-95668433D01*
X172498318Y-95696737D01*
X172396739Y-95730335D01*
X172308412Y-95760326D01*
X172232458Y-95787206D01*
X172167996Y-95811469D01*
X172114147Y-95833612D01*
X172070031Y-95854127D01*
X172034769Y-95873512D01*
X172007480Y-95892261D01*
X171987285Y-95910868D01*
X171973304Y-95929830D01*
X171964658Y-95949641D01*
X171960467Y-95970795D01*
X171959850Y-95993790D01*
X171961929Y-96019118D01*
X171971430Y-96066248D01*
X171992735Y-96118966D01*
X172023139Y-96163061D01*
X172061054Y-96195703D01*
X172067478Y-96199432D01*
X172099364Y-96213310D01*
X172142283Y-96227164D01*
X172192797Y-96240088D01*
X172247469Y-96251173D01*
X172302862Y-96259513D01*
X172312008Y-96260543D01*
X172359061Y-96264127D01*
X172417130Y-96266496D01*
X172482660Y-96267672D01*
X172552094Y-96267677D01*
X172621877Y-96266533D01*
X172688454Y-96264263D01*
X172748268Y-96260888D01*
X172797765Y-96256431D01*
X172911919Y-96240209D01*
X173071451Y-96208148D01*
X173230346Y-96165855D01*
X173384149Y-96114554D01*
X173528402Y-96055472D01*
X173569216Y-96036980D01*
X173608039Y-96019472D01*
X173636009Y-96007061D01*
X173654903Y-95999030D01*
X173666501Y-95994664D01*
X173672583Y-95993248D01*
X173674927Y-95994066D01*
X173675313Y-95996404D01*
X173676332Y-96002050D01*
X173680232Y-96021466D01*
X173686738Y-96053150D01*
X173695517Y-96095524D01*
X173706238Y-96147005D01*
X173718567Y-96206014D01*
X173732171Y-96270969D01*
X173746717Y-96340290D01*
X173761873Y-96412397D01*
X173777307Y-96485709D01*
X173792684Y-96558645D01*
X173807673Y-96629625D01*
X173821940Y-96697068D01*
X173835153Y-96759393D01*
X173846979Y-96815021D01*
X173847333Y-96816678D01*
X173857086Y-96862370D01*
G37*
%TD*%
M02*
